<svg width="56" height="56" viewBox="0 0 56 56" fill="none" xmlns="http://www.w3.org/2000/svg">
<rect width="56" height="56" rx="28" fill="black" fill-opacity="0.03"/>
<path d="M16.3333 27.9999H18.6667C18.6639 26.7734 18.9033 25.5584 19.3712 24.4247C19.8391 23.2909 20.5262 22.2607 21.3932 21.3931C22.2423 20.5412 23.2497 19.8635 24.3588 19.3981C26.6449 18.4483 29.2119 18.4312 31.5105 19.3503C31.533 20.1056 31.8492 20.8225 32.3919 21.3484C32.9346 21.8743 33.661 22.1678 34.4167 22.1666C36.0337 22.1666 37.3333 20.8669 37.3333 19.2499C37.3333 17.6329 36.0337 16.3333 34.4167 16.3333C33.6128 16.3333 32.886 16.6553 32.3598 17.1791C29.5237 16.0439 26.2663 16.0614 23.4523 17.2479C22.0653 17.8309 20.8052 18.6785 19.7423 19.7434C18.677 20.8057 17.8289 22.0655 17.2457 23.4523C16.6404 24.8918 16.3302 26.4383 16.3333 27.9999ZM36.6018 31.6423C36.134 32.7529 35.462 33.7516 34.6068 34.6068C33.7517 35.4619 32.753 36.1339 31.6412 36.6018C29.3551 37.5515 26.7881 37.5687 24.4895 36.6496C24.467 35.8942 24.1508 35.1774 23.6081 34.6515C23.0655 34.1255 22.3391 33.832 21.5833 33.8333C19.9663 33.8333 18.6667 35.1329 18.6667 36.7499C18.6667 38.3669 19.9663 39.6666 21.5833 39.6666C22.3872 39.6666 23.114 39.3446 23.6402 38.8208C25.0256 39.3802 26.5059 39.6674 28 39.6666C30.2943 39.671 32.5388 38.9977 34.4518 37.7312C36.3649 36.4647 37.8612 34.6614 38.7532 32.5476C39.3592 31.1082 39.6699 29.5617 39.6667 27.9999H37.3333C37.3363 29.2508 37.0875 30.4895 36.6018 31.6423Z" fill="#0080FF"/>
<path d="M28 22.7056C25.081 22.7056 22.7057 25.0809 22.7057 27.9999C22.7057 30.9189 25.081 33.2942 28 33.2942C30.919 33.2942 33.2943 30.9189 33.2943 27.9999C33.2943 25.0809 30.919 22.7056 28 22.7056ZM28 30.9609C26.3678 30.9609 25.039 29.6321 25.039 27.9999C25.039 26.3677 26.3678 25.0389 28 25.0389C29.6322 25.0389 30.961 26.3677 30.961 27.9999C30.961 29.6321 29.6322 30.9609 28 30.9609Z" fill="#0080FF"/>
</svg>
