<svg width="96" height="96" viewBox="0 0 96 96" fill="none" xmlns="http://www.w3.org/2000/svg">
<path d="M75 45.4C73.9391 45.3905 72.8813 45.2834 71.84 45.08C70.8389 44.8698 69.8608 44.5616 68.92 44.16L68.24 44H67.76C67.36 44 67.16 44.28 67.16 44.84V46.16C67.1033 46.4101 67.1033 46.6698 67.16 46.92C67.3609 47.2489 67.6526 47.5129 68 47.68C68.9621 48.1613 69.9846 48.5111 71.04 48.72C72.3504 49.0332 73.6927 49.1943 75.04 49.2C76.3954 49.2406 77.7479 49.0513 79.04 48.64C80.1075 48.3599 81.103 47.8553 81.96 47.16C82.77 46.5339 83.438 45.7432 83.92 44.84C84.3787 43.8644 84.6111 42.7979 84.6 41.72C84.6145 40.3826 84.1933 39.0768 83.4 38C82.3334 36.7881 80.9472 35.9009 79.4 35.44L75.6 34.24C74.5383 33.9652 73.5443 33.475 72.68 32.8C72.4266 32.5569 72.2251 32.2649 72.0876 31.9418C71.9501 31.6187 71.8795 31.2711 71.88 30.92C71.8514 30.4453 71.9515 29.9718 72.1698 29.5493C72.388 29.1269 72.7163 28.7713 73.12 28.52C74.2268 27.983 75.4516 27.7353 76.68 27.8C78.4302 27.7575 80.1673 28.1131 81.76 28.84C82.0856 29.006 82.4375 29.1142 82.8 29.16C83.2 29.16 83.4 28.84 83.4 28.28V26.84C83.412 26.529 83.3282 26.2218 83.16 25.96C82.9464 25.6877 82.6725 25.4686 82.36 25.32C82.0033 25.1236 81.6282 24.9628 81.24 24.84C80.7422 24.6643 80.2347 24.5173 79.72 24.4L77.96 24C77.3075 23.9528 76.6525 23.9528 76 24C74.8776 23.9806 73.7586 24.1289 72.68 24.44C71.6702 24.7347 70.7217 25.209 69.88 25.84C69.0992 26.4097 68.4566 27.148 68 28C67.5094 28.9083 67.2614 29.9278 67.28 30.96C67.2561 32.404 67.7213 33.8138 68.6 34.96C69.6983 36.283 71.1796 37.2332 72.84 37.68L76.84 38.88C77.8297 39.1112 78.749 39.5777 79.52 40.24C79.9989 40.7469 80.2577 41.4228 80.24 42.12C80.2486 42.626 80.1238 43.1253 79.878 43.5677C79.6322 44.0101 79.2742 44.38 78.84 44.64C77.6527 45.2372 76.3253 45.4999 75 45.4ZM51.76 26C51.6983 25.6079 51.5167 25.2445 51.24 24.96C50.9408 24.7393 50.5695 24.6394 50.2 24.68H48C47.6323 24.6595 47.2678 24.7577 46.96 24.96C46.6684 25.2337 46.484 25.6024 46.44 26L42.44 43.6L37.88 26C37.8073 25.6031 37.6113 25.2392 37.32 24.96C37.32 24.96 36.8 24.68 36.28 24.68H33.68C33.24 24.68 33.04 24.92 33.04 25.36C33.0788 25.7279 33.1593 26.0902 33.28 26.44L39.52 47C39.6011 47.3657 39.7654 47.7079 40 48C40.3144 48.1833 40.677 48.2669 41.04 48.24H43.32C43.6956 48.2653 44.0705 48.182 44.4 48C44.6522 47.6884 44.8177 47.3159 44.88 46.92L48.88 29.8L52.88 46.96C52.9132 47.3522 53.0831 47.7202 53.36 48C53.6747 48.2199 54.0581 48.3192 54.44 48.28H56.72C57.0749 48.2974 57.4258 48.1991 57.72 48C58.0209 47.7282 58.2187 47.3608 58.28 46.96L64.72 26.4C64.7435 26.1873 64.7435 25.9726 64.72 25.76C64.7356 25.6137 64.7356 25.4662 64.72 25.32C64.7334 25.2275 64.7251 25.1333 64.6957 25.0447C64.6662 24.956 64.6165 24.8755 64.5505 24.8095C64.4845 24.7434 64.4039 24.6937 64.3153 24.6643C64.2267 24.6349 64.1324 24.6265 64.04 24.64H61.56C61.1929 24.625 60.83 24.7227 60.52 24.92C60.2737 25.2251 60.0963 25.5799 60 25.96L56 44L51.76 26ZM23.08 34.52C22.1382 34.3964 21.1898 34.3296 20.24 34.32C17.8859 34.1963 15.5676 34.9359 13.72 36.4C12.9332 37.0738 12.3088 37.9166 11.8932 38.8654C11.4776 39.8143 11.2817 40.8448 11.32 41.88C11.2735 42.8227 11.4237 43.7648 11.7612 44.6462C12.0986 45.5277 12.6159 46.3293 13.28 47C13.9938 47.6587 14.8323 48.168 15.7459 48.4977C16.6596 48.8275 17.63 48.971 18.6 48.92C20.1268 48.9639 21.6431 48.6546 23.0307 48.0163C24.4183 47.378 25.6398 46.4278 26.6 45.24C26.8338 45.7762 27.101 46.2972 27.4 46.8C27.6848 47.2394 28.0059 47.6542 28.36 48.04C28.4567 48.1379 28.572 48.2157 28.699 48.2688C28.826 48.3219 28.9623 48.3492 29.1 48.3492C29.2377 48.3492 29.374 48.3219 29.501 48.2688C29.628 48.2157 29.7433 48.1379 29.84 48.04L31.52 46.92C31.6602 46.8331 31.7796 46.7164 31.8695 46.5781C31.9593 46.4398 32.0176 46.2834 32.04 46.12C32.1047 45.9115 32.1047 45.6884 32.04 45.48C31.7159 44.874 31.4352 44.2457 31.2 43.6C30.9857 42.8187 30.8913 42.0095 30.92 41.2V32.76C31.0156 31.5746 30.8699 30.3822 30.4918 29.2547C30.1137 28.1272 29.5109 27.088 28.72 26.2C27.7035 25.3452 26.5219 24.7088 25.2488 24.3303C23.9757 23.9518 22.6384 23.8394 21.32 24C19.9698 23.9995 18.6252 24.1743 17.32 24.52C16.1578 24.7901 15.0304 25.1928 13.96 25.72C13.6777 25.8447 13.4304 26.037 13.24 26.28C13.1423 26.5788 13.1423 26.9011 13.24 27.2V28.52C13.24 29.08 13.24 29.32 13.8 29.32C13.945 29.3513 14.095 29.3513 14.24 29.32L15.16 29C15.9725 28.6011 16.8151 28.2668 17.68 28C18.6219 27.7639 19.589 27.643 20.56 27.64C22.1063 27.478 23.655 27.9225 24.88 28.88C25.8326 30.0764 26.2778 31.5988 26.12 33.12V35.08L23.08 34.52ZM26.2 38.12V39.2C26.2031 39.9819 26.1091 40.7612 25.92 41.52C25.7512 42.157 25.4362 42.7459 25 43.24C24.3331 44.024 23.4602 44.6059 22.48 44.92C21.6057 45.2275 20.6868 45.3897 19.76 45.4C19.2526 45.4377 18.7428 45.3721 18.2616 45.2071C17.7803 45.0421 17.3375 44.7811 16.96 44.44C16.6096 44.0605 16.3431 43.6115 16.1777 43.1221C16.0123 42.6328 15.9518 42.1142 16 41.6C15.9669 41.0253 16.0692 40.4509 16.2984 39.923C16.5277 39.395 16.8776 38.9281 17.32 38.56C18.4858 37.7428 19.9013 37.3605 21.32 37.48H23.8C24.6111 37.6493 25.4123 37.8629 26.2 38.12ZM79.04 60C69.4776 64.0232 59.2142 66.1167 48.84 66.16C34.9542 66.1626 21.3068 62.5508 9.24 55.68C8.28 55.08 7.52 56.08 8.36 56.84C19.2212 66.6585 33.3587 72.0653 48 72C59.5461 72.0284 70.8344 68.5862 80.4 62.12C81.76 60.88 80.52 59.24 79.04 60Z" fill="black"/>
<path d="M73.52 56.24C72.76 56.8 72.88 57.56 73.72 57.44C76.56 57.08 82.84 56.36 83.96 57.8C85.08 59.24 82.72 65.12 81.64 67.76C81.32 68.56 82.04 68.88 82.76 68.28C84.5813 66.6032 85.9774 64.5171 86.833 62.194C87.6885 59.8709 87.9788 57.3775 87.68 54.92C85.3815 54.0149 82.9023 53.6627 80.4426 53.892C77.983 54.1213 75.6116 54.9256 73.52 56.24Z" fill="black"/>
</svg>
