<svg width="96" height="96" viewBox="0 0 96 96" fill="none" xmlns="http://www.w3.org/2000/svg">
<path d="M78.66 67.2441C77.5524 69.8261 76.1839 72.2882 74.576 74.5921C72.428 77.6601 70.664 79.7801 69.312 80.9601C67.212 82.8881 64.956 83.8801 62.544 83.9361C60.816 83.9361 58.728 83.4441 56.296 82.4441C53.856 81.4481 51.616 80.9601 49.564 80.9601C47.416 80.9601 45.112 81.4481 42.644 82.4441C40.18 83.4441 38.188 83.9681 36.664 84.0161C34.356 84.1161 32.048 83.1001 29.748 80.9601C28.28 79.6801 26.444 77.4801 24.24 74.3681C21.88 71.0521 19.94 67.1921 18.42 62.8041C16.792 58.0561 15.976 53.4641 15.976 49.0161C15.976 43.9241 17.076 39.5281 19.28 35.8481C20.947 32.958 23.3302 30.5458 26.2 28.8441C29.0299 27.1468 32.2604 26.2328 35.56 26.1961C37.4 26.1961 39.812 26.7641 42.8 27.8841C45.788 29.0041 47.708 29.5721 48.544 29.5721C49.176 29.5721 51.3 28.9041 54.916 27.5801C58.328 26.3521 61.208 25.8441 63.568 26.0441C69.968 26.5601 74.772 29.0801 77.968 33.6241C72.248 37.0921 69.42 41.9441 69.476 48.1721C69.524 53.0241 71.288 57.0601 74.744 60.2641C76.2719 61.7262 78.0546 62.8962 80.004 63.7161C79.58 64.9441 79.132 66.1161 78.66 67.2441ZM63.992 9.52009C63.992 13.3201 62.6 16.8721 59.836 20.1561C56.492 24.0601 52.452 26.3201 48.072 25.9641C48.0147 25.4863 47.9867 25.0054 47.988 24.5241C47.988 20.8721 49.572 16.9681 52.4 13.7721C53.808 12.1561 55.6 10.8081 57.772 9.73609C59.94 8.68009 61.988 8.09609 63.916 7.99609C63.968 8.50809 63.992 9.01609 63.992 9.52009Z" fill="black"/>
</svg>
