<svg width="96" height="96" viewBox="0 0 96 96" fill="none" xmlns="http://www.w3.org/2000/svg">
<path d="M13.38 27.74C6.356 37.832 7.228 50.964 12.596 61.688L12.988 62.448C13.072 62.608 13.152 62.776 13.24 62.932C13.288 63.028 13.344 63.12 13.396 63.208C13.6483 63.6733 13.9124 64.1321 14.188 64.584L14.48 65.064C14.7519 65.51 15.0333 65.9501 15.324 66.384C15.6105 66.8149 15.9053 67.2403 16.208 67.66L16.352 67.856C16.604 68.208 16.868 68.556 17.136 68.9L17.432 69.276L18.16 70.168L18.436 70.496C18.764 70.884 19.104 71.272 19.444 71.652L19.464 71.672C19.48 71.688 19.492 71.696 19.504 71.716C19.836 72.08 20.184 72.44 20.528 72.8L20.86 73.132L21.68 73.936L22.016 74.256C22.384 74.604 22.76 74.944 23.14 75.28L23.156 75.296L23.352 75.46C23.684 75.752 24.028 76.04 24.372 76.32L24.792 76.656C25.527 77.2453 26.2808 77.8109 27.052 78.352C27.168 78.436 27.28 78.52 27.4 78.6L27.496 78.668C27.8 78.88 28.112 79.08 28.42 79.28C28.552 79.368 28.684 79.46 28.824 79.548C29.9731 80.2813 31.1557 80.9607 32.368 81.584C32.628 81.72 32.884 81.856 33.148 81.988L33.328 82.076L33.648 82.232C34.056 82.424 34.468 82.62 34.88 82.804L35.144 82.92C35.62 83.128 36.1 83.328 36.584 83.516L36.936 83.656C37.4425 83.8528 37.9519 84.0421 38.464 84.224C38.964 84.4 39.472 84.564 39.984 84.72L40.352 84.832C40.864 84.988 41.376 85.172 41.912 85.272C75.88 91.464 85.744 64.864 85.744 64.864C77.456 75.656 62.752 78.504 48.816 75.336C48.288 75.216 47.772 75.052 47.256 74.9L46.868 74.784C45.8488 74.469 44.8414 74.1167 43.848 73.728L43.476 73.584C42.996 73.396 42.52 73.196 42.052 72.992L41.768 72.868C41.3641 72.6869 40.9627 72.5002 40.564 72.308L40.216 72.14C39.904 71.988 39.596 71.824 39.288 71.668C39.084 71.56 38.872 71.456 38.668 71.34C38.2934 71.1391 37.9226 70.9311 37.556 70.716L37.18 70.508C36.6905 70.2197 36.2064 69.9223 35.728 69.616L35.336 69.356C34.9873 69.1318 34.6419 68.9024 34.3 68.668L33.968 68.432C33.64 68.2 33.312 67.968 32.992 67.728C32.5488 67.3956 32.1114 67.0556 31.68 66.708L31.284 66.392C30.916 66.088 30.548 65.784 30.188 65.468C29.7558 65.0916 29.3304 64.7076 28.912 64.316C28.8 64.212 28.692 64.112 28.588 64.004C28.3058 63.7384 28.0284 63.4677 27.756 63.192L27.432 62.868C27.0872 62.5152 26.7485 62.1565 26.416 61.792L26.368 61.744C26.0175 61.3591 25.6735 60.9683 25.336 60.572L25.068 60.248C24.7212 59.8373 24.3825 59.4199 24.052 58.996C23.7596 58.619 23.4729 58.2376 23.192 57.852C15.456 47.3 12.68 32.744 18.86 20.792" fill="black"/>
<path d="M35.176 19.2359C30.096 26.5439 30.376 36.3279 34.336 44.0559C35 45.3519 35.748 46.6119 36.58 47.8079C37.344 48.8999 38.184 50.1959 39.196 51.0719C39.564 51.4759 39.944 51.8679 40.332 52.2519L40.636 52.5479C41.012 52.9159 41.396 53.2759 41.8 53.6319L41.844 53.6719L41.856 53.6799C42.3 54.0679 42.752 54.4399 43.216 54.8039L43.528 55.0439C44.0061 55.4145 44.4943 55.772 44.992 56.1159C45.204 56.2639 45.424 56.4039 45.636 56.5439C45.74 56.6119 45.84 56.6839 45.948 56.7479C46.3432 57.0031 46.7447 57.2485 47.152 57.4839C47.456 57.6599 47.772 57.8319 48.084 58.0039C48.188 58.0639 48.304 58.1199 48.412 58.1759C48.632 58.2879 48.844 58.4039 49.064 58.5079C49.5458 58.746 50.0326 58.9741 50.524 59.1919L50.82 59.3159C51.192 59.4719 51.564 59.6239 51.944 59.7679L52.412 59.9439C52.756 60.0719 53.096 60.1839 53.436 60.2999L53.904 60.4479C54.388 60.5999 54.876 60.7879 55.384 60.8759C81.608 65.2199 87.656 45.0319 87.656 45.0319C82.2 52.8879 71.632 56.6399 60.356 53.7119C59.3506 53.4518 58.3587 53.1421 57.384 52.7839L56.912 52.6119C56.4366 52.4304 55.9657 52.237 55.5 52.0319C55.0368 51.8298 54.578 51.6177 54.124 51.3959C53.896 51.2839 53.672 51.1639 53.444 51.0479L53.048 50.8439C52.3237 50.4502 51.6127 50.0326 50.916 49.5919L50.596 49.3799C49.7656 48.8392 48.962 48.2585 48.188 47.6399C43.252 43.7439 39.336 38.4159 37.476 32.3799C35.524 26.1159 35.948 19.0879 39.324 13.3799" fill="black"/>
<path d="M53.516 12.884C50.52 17.292 50.224 22.76 52.3 27.628C54.492 32.796 58.984 36.844 64.224 38.768C64.5325 38.8833 64.8447 38.9887 65.16 39.084C65.468 39.18 65.768 39.296 66.092 39.352C80.572 42.148 84.496 31.924 85.54 30.416C82.1 35.372 76.316 36.56 69.228 34.836C67.9362 34.4944 66.6788 34.0338 65.472 33.46C64.2107 32.8513 63.0117 32.1212 61.892 31.28C55.552 26.464 51.6 17.276 55.748 9.79199" fill="black"/>
</svg>
