<svg width="96" height="96" viewBox="0 0 96 96" fill="none" xmlns="http://www.w3.org/2000/svg">
<path d="M49.708 52.044C49.856 49.376 51.16 47.028 53.132 45.36C55.2025 43.6378 57.815 42.7027 60.508 42.72C63.348 42.72 65.948 43.72 67.888 45.36C69.856 47.028 71.164 49.38 71.312 52.044C71.464 54.788 70.364 57.336 68.428 59.224C66.297 61.2571 63.4572 62.3792 60.512 62.352C57.5641 62.3809 54.7213 61.2587 52.588 59.224C50.656 57.336 49.552 54.788 49.708 52.044Z" fill="black"/>
<path d="M32.496 57.444C32.516 58.484 32.852 60.512 33.348 62.1C34.4287 65.5152 36.2415 68.6536 38.66 71.296C41.2524 74.1491 44.4191 76.4215 47.952 77.964C51.7948 79.6593 55.952 80.5248 60.152 80.504C64.3559 80.5092 68.5139 79.6302 72.356 77.924C75.8842 76.3628 79.0466 74.0806 81.64 71.224C84.0535 68.5731 85.8631 65.4302 86.944 62.012C87.4716 60.3423 87.8071 58.6178 87.944 56.872C88.3211 51.8241 87.0767 46.7875 84.392 42.496C82.7535 39.8759 80.6607 37.5691 78.212 35.684L78.216 35.68L53.22 16.484L53.156 16.428C51.512 15.172 48.752 15.176 46.952 16.436C45.124 17.712 44.92 19.82 46.536 21.156L46.532 21.16L56.956 29.644L25.184 29.68H25.136C22.512 29.68 19.988 31.408 19.488 33.584C18.976 35.804 20.76 37.644 23.492 37.652L23.488 37.664L39.596 37.632L10.844 59.696L10.736 59.78C8.028 61.856 7.152 65.308 8.856 67.496C10.592 69.72 14.272 69.72 17.016 67.504L32.704 54.668C32.708 54.668 32.48 56.4 32.496 57.444ZM72.808 63.244C69.576 66.54 65.056 68.408 60.156 68.416C55.252 68.424 50.732 66.572 47.496 63.284C45.9662 61.7527 44.7871 59.9075 44.04 57.876C43.3343 55.9442 43.0626 53.8807 43.244 51.832C43.42 49.812 44.016 47.884 44.98 46.144C45.924 44.428 47.228 42.884 48.828 41.568C52.0373 38.9874 56.0379 37.5917 60.156 37.616C64.2701 37.5829 68.2703 38.9672 71.484 41.536C73.08 42.84 74.384 44.38 75.328 46.092C76.288 47.836 76.888 49.756 77.064 51.776C77.2445 53.8244 76.9742 55.8874 76.272 57.82C75.5173 59.8543 74.3362 61.7037 72.808 63.244Z" fill="black"/>
</svg>
