<svg width="96" height="96" viewBox="0 0 96 96" fill="none" xmlns="http://www.w3.org/2000/svg">
<path d="M81.04 31.1999C79.4483 28.3854 77.1744 26.0164 74.4273 24.3109C71.6803 22.6054 68.5485 21.6181 65.32 21.4399C61.5154 21.6079 57.9029 23.1581 55.16 25.7999C52.892 27.8535 50.8534 30.1469 49.08 32.6399C47.1607 30.1185 44.9747 27.8118 42.56 25.7599C39.3666 22.9778 35.2753 21.4436 31.04 21.4399C27.6602 21.6803 24.3968 22.7755 21.5562 24.6226C18.7155 26.4697 16.3908 29.0082 14.8 31.9999C10.3642 39.2201 8.0108 47.526 7.99999 55.9999C7.98056 58.2073 8.22223 60.4093 8.71999 62.5599C9.12171 64.4778 9.83806 66.316 10.84 67.9999C12.0474 70.0769 13.81 71.7761 15.9297 72.9066C18.0495 74.0372 20.4425 74.5543 22.84 74.3999C27.84 74.3999 31.6 72.1599 36.04 66.3999C39.3666 61.8438 42.3227 57.0284 44.88 51.9999L47.4 47.5199C47.64 47.1599 47.84 46.7999 48.04 46.4399L48.64 47.4399L55.8 59.4399C58.0916 63.4406 60.8437 67.1592 64 70.5199C65.3269 71.8616 66.9199 72.9106 68.6766 73.5995C70.4333 74.2884 72.3148 74.6019 74.2 74.5199C76.1671 74.5962 78.1228 74.1872 79.8946 73.3292C81.6665 72.4712 83.2 71.1905 84.36 69.5999C84.6279 69.2453 84.8686 68.8709 85.08 68.4799C85.5646 67.6769 85.9795 66.8339 86.32 65.9599L86.8 64.5599C87.3366 63.0792 87.7383 61.553 88 59.9999C88.0741 58.6676 88.0741 57.3322 88 55.9999C88.1696 47.2287 85.7486 38.6022 81.04 31.1999ZM40.56 45.4399C38 49.4399 34.28 55.4799 31.08 59.8799C27.08 65.3599 25.04 65.9199 22.8 65.9199C21.8661 65.9374 20.945 65.7011 20.1348 65.2362C19.3247 64.7712 18.656 64.0951 18.2 63.2799C17.0796 61.1942 16.5407 58.8455 16.64 56.4799C16.5505 49.2741 18.4613 42.1847 22.16 35.9999C23.0247 34.3756 24.2764 32.9894 25.8043 31.9638C27.3321 30.9383 29.0892 30.305 30.92 30.1199C32.6977 30.2029 34.4346 30.6803 36.0051 31.5174C37.5755 32.3545 38.9401 33.5304 40 34.9599C41.4346 36.627 42.7702 38.3766 44 40.1999L40.56 45.4399ZM74.24 65.9199C72.32 65.9199 70.84 65.1599 68.72 62.5999C65.2728 57.9343 62.12 53.0582 59.28 47.9999L57.2 44.5599C55.76 42.1199 54.36 39.9199 53.2 37.9599C53.403 37.5856 53.6302 37.2248 53.88 36.8799C57.64 31.3199 60.96 28.1999 65.08 28.1999C67.1636 28.3834 69.1677 29.0876 70.908 30.2479C72.6484 31.4081 74.0693 32.9872 75.04 34.8399C78.7984 41.3196 80.6948 48.7112 80.52 56.1999C80.36 61.4399 79.16 65.9199 74.24 65.9199Z" fill="black"/>
</svg>
