<svg width="190" height="66" viewBox="0 0 190 66" fill="none" xmlns="http://www.w3.org/2000/svg">
<rect width="190" height="66" rx="7" fill="#0080FF" fill-opacity="0.2"/>
<rect x="5" y="5" width="180" height="56" rx="5" fill="#0080FF"/>
<path d="M36.6426 40.2441C32.5898 40.2441 30.0312 37.4512 30.0312 32.9492V32.9395C30.0312 28.4375 32.5996 25.6641 36.6426 25.6641C39.8848 25.6641 42.2676 27.6855 42.6387 30.5566L42.6484 30.6543H40.1777L40.1289 30.4688C39.7188 28.8574 38.4785 27.8516 36.6426 27.8516C34.1816 27.8516 32.6094 29.8145 32.6094 32.9395V32.9492C32.6094 36.084 34.1914 38.0566 36.6426 38.0566C38.4395 38.0566 39.6992 37.0898 40.1582 35.3516L40.1875 35.2539H42.6582L42.6387 35.3516C42.2773 38.2422 39.8848 40.2441 36.6426 40.2441ZM48.9082 40.2051C45.8613 40.2051 43.8984 38.1738 43.8984 34.8242V34.8047C43.8984 31.4844 45.8906 29.4336 48.8984 29.4336C51.916 29.4336 53.918 31.4648 53.918 34.8047V34.8242C53.918 38.1836 51.9453 40.2051 48.9082 40.2051ZM48.918 38.2422C50.4512 38.2422 51.4375 36.9922 51.4375 34.8242V34.8047C51.4375 32.6465 50.4414 31.4062 48.8984 31.4062C47.3848 31.4062 46.3789 32.6562 46.3789 34.8047V34.8242C46.3789 37.002 47.3652 38.2422 48.918 38.2422ZM55.4805 40V29.6484H57.9121V31.2695H57.9609C58.498 30.1562 59.5527 29.4336 61.125 29.4336C63.4004 29.4336 64.6992 30.8984 64.6992 33.3008V40H62.2676V33.7891C62.2676 32.3145 61.584 31.4844 60.1973 31.4844C58.8008 31.4844 57.9121 32.5 57.9121 33.9941V40H55.4805ZM70.5 40.2051C68.332 40.2051 67.3066 39.3262 67.3066 37.1973V31.5234H65.8418V29.6484H67.3066V27.0215H69.7773V29.6484H71.7012V31.5234H69.7773V36.9922C69.7773 38.0078 70.2266 38.3301 71.1152 38.3301C71.3496 38.3301 71.5352 38.3008 71.7012 38.291V40.1172C71.418 40.1562 70.9883 40.2051 70.5 40.2051ZM76.291 40.1758C74.2207 40.1758 72.8242 38.8965 72.8242 37.0508V37.0312C72.8242 35.1953 74.25 34.0918 76.7598 33.9355L79.4648 33.7695V33.0566C79.4648 32.0117 78.7812 31.377 77.5508 31.377C76.3984 31.377 75.6953 31.9141 75.5391 32.6758L75.5195 32.7637H73.2637L73.2734 32.6465C73.4199 30.8105 75.0117 29.4336 77.6387 29.4336C80.2266 29.4336 81.8965 30.8008 81.8965 32.8809V40H79.4648V38.4082H79.4062C78.8105 39.4922 77.6582 40.1758 76.291 40.1758ZM75.2461 36.9531C75.2461 37.8027 75.9492 38.3203 77.0137 38.3203C78.4102 38.3203 79.4648 37.3926 79.4648 36.1621V35.3809L77.1016 35.5273C75.9004 35.6055 75.2461 36.123 75.2461 36.9434V36.9531ZM88.4297 40.2051C85.3535 40.2051 83.4297 38.1348 83.4297 34.8145V34.8047C83.4297 31.5039 85.3828 29.4336 88.4004 29.4336C91.125 29.4336 92.8242 31.1621 92.9707 33.2324L92.9805 33.3105H90.6855L90.666 33.2227C90.4609 32.2168 89.7188 31.4062 88.4297 31.4062C86.8965 31.4062 85.9102 32.7051 85.9102 34.8242V34.834C85.9102 36.9922 86.9062 38.2422 88.4395 38.2422C89.6699 38.2422 90.4512 37.5098 90.6758 36.4258L90.6953 36.3379H92.9902L92.9805 36.4062C92.7949 38.5645 91.0469 40.2051 88.4297 40.2051ZM98.293 40.2051C96.125 40.2051 95.0996 39.3262 95.0996 37.1973V31.5234H93.6348V29.6484H95.0996V27.0215H97.5703V29.6484H99.4941V31.5234H97.5703V36.9922C97.5703 38.0078 98.0195 38.3301 98.9082 38.3301C99.1426 38.3301 99.3281 38.3008 99.4941 38.291V40.1172C99.2109 40.1562 98.7812 40.2051 98.293 40.2051ZM111.213 40.2441C107.639 40.2441 105.412 38.1445 105.412 35.0293V25.9082H107.932V34.8242C107.932 36.7773 109.123 38.0566 111.213 38.0566C113.303 38.0566 114.484 36.7773 114.484 34.8242V25.9082H116.994V35.0293C116.994 38.1445 114.797 40.2441 111.213 40.2441ZM123.098 40.2051C120.383 40.2051 118.83 38.916 118.615 36.9922L118.605 36.9043H120.998L121.018 36.9922C121.203 37.8809 121.877 38.4082 123.107 38.4082C124.289 38.4082 125.002 37.9297 125.002 37.168V37.1582C125.002 36.5332 124.641 36.1816 123.566 35.9375L121.848 35.5566C119.865 35.1172 118.869 34.1504 118.869 32.6172V32.6074C118.869 30.7129 120.52 29.4336 123.02 29.4336C125.598 29.4336 127.102 30.8496 127.189 32.6367L127.199 32.7441H124.934L124.924 32.666C124.816 31.8359 124.152 31.2305 123.02 31.2305C121.945 31.2305 121.271 31.7285 121.271 32.4902V32.5C121.271 33.0957 121.672 33.4863 122.746 33.7305L124.475 34.1113C126.613 34.5898 127.443 35.4297 127.443 36.9336V36.9434C127.443 38.8965 125.637 40.2051 123.098 40.2051Z" fill="white" fill-opacity="0.95"/>
<path d="M142 31.962H157.05L151.589 26.4678L153.048 25L161 33L153.048 41L151.589 39.5322L157.05 34.038H142V31.962Z" fill="white"/>
</svg>
