<svg width="190" height="66" viewBox="0 0 190 66" fill="none" xmlns="http://www.w3.org/2000/svg">
<rect width="190" height="66" rx="7" fill="#0080FF" fill-opacity="0.2"/>
<rect x="5" y="5" width="180" height="56" rx="5" fill="#0080FF"/>
<path d="M36.1758 40.2441C32.9434 40.2441 30.8145 38.7207 30.6484 36.1914L30.6387 36.0449H33.0508L33.0703 36.1621C33.2559 37.373 34.4961 38.125 36.2637 38.125C38.041 38.125 39.1543 37.334 39.1543 36.123V36.1133C39.1543 35.0586 38.4219 34.4922 36.6055 34.1113L35.0918 33.7988C32.3184 33.2227 30.9512 31.9336 30.9512 29.834V29.8242C30.9609 27.3438 33.1387 25.6641 36.1758 25.6641C39.252 25.6641 41.2637 27.2852 41.4102 29.6973L41.4199 29.8633H39.0078L38.9883 29.7461C38.8223 28.5156 37.7383 27.7832 36.1562 27.7832C34.5059 27.793 33.4805 28.5645 33.4805 29.6875V29.6973C33.4805 30.6934 34.252 31.2793 35.9512 31.6309L37.4746 31.9434C40.4043 32.5488 41.6836 33.7402 41.6836 35.9375V35.9473C41.6836 38.5742 39.6133 40.2441 36.1758 40.2441ZM47.1719 40.2051C45.0039 40.2051 43.9785 39.3262 43.9785 37.1973V31.5234H42.5137V29.6484H43.9785V27.0215H46.4492V29.6484H48.373V31.5234H46.4492V36.9922C46.4492 38.0078 46.8984 38.3301 47.7871 38.3301C48.0215 38.3301 48.207 38.3008 48.373 38.291V40.1172C48.0898 40.1562 47.6602 40.2051 47.1719 40.2051ZM52.9629 40.1758C50.8926 40.1758 49.4961 38.8965 49.4961 37.0508V37.0312C49.4961 35.1953 50.9219 34.0918 53.4316 33.9355L56.1367 33.7695V33.0566C56.1367 32.0117 55.4531 31.377 54.2227 31.377C53.0703 31.377 52.3672 31.9141 52.2109 32.6758L52.1914 32.7637H49.9355L49.9453 32.6465C50.0918 30.8105 51.6836 29.4336 54.3105 29.4336C56.8984 29.4336 58.5684 30.8008 58.5684 32.8809V40H56.1367V38.4082H56.0781C55.4824 39.4922 54.3301 40.1758 52.9629 40.1758ZM51.918 36.9531C51.918 37.8027 52.6211 38.3203 53.6855 38.3203C55.082 38.3203 56.1367 37.3926 56.1367 36.1621V35.3809L53.7734 35.5273C52.5723 35.6055 51.918 36.123 51.918 36.9434V36.9531ZM60.5312 40V29.6484H62.9629V31.4355H63.0117C63.334 30.1855 64.1934 29.4336 65.3848 29.4336C65.6875 29.4336 65.9707 29.4824 66.1562 29.5312V31.7285C65.9512 31.6504 65.5801 31.5918 65.1699 31.5918C63.793 31.5918 62.9629 32.4609 62.9629 33.9941V40H60.5312ZM71.6836 40.2051C69.5156 40.2051 68.4902 39.3262 68.4902 37.1973V31.5234H67.0254V29.6484H68.4902V27.0215H70.9609V29.6484H72.8848V31.5234H70.9609V36.9922C70.9609 38.0078 71.4102 38.3301 72.2988 38.3301C72.5332 38.3301 72.7188 38.3008 72.8848 38.291V40.1172C72.6016 40.1562 72.1719 40.2051 71.6836 40.2051ZM78.8027 40V25.9082H87.7871V28.0273H81.3223V32.1973H87.2305V34.248H81.3223V40H78.8027ZM89.3789 40V29.6484H91.8105V31.4355H91.8594C92.1816 30.1855 93.041 29.4336 94.2324 29.4336C94.5352 29.4336 94.8184 29.4824 95.0039 29.5312V31.7285C94.7988 31.6504 94.4277 31.5918 94.0176 31.5918C92.6406 31.5918 91.8105 32.4609 91.8105 33.9941V40H89.3789ZM100.414 40.2051C97.3086 40.2051 95.4336 38.1445 95.4336 34.8535V34.8438C95.4336 31.582 97.3379 29.4336 100.297 29.4336C103.256 29.4336 105.092 31.5137 105.092 34.6387V35.4199H97.8457C97.8848 37.2363 98.8809 38.3105 100.463 38.3105C101.674 38.3105 102.465 37.666 102.699 36.9727L102.719 36.9043H104.994L104.965 37.0117C104.643 38.6035 103.119 40.2051 100.414 40.2051ZM100.326 31.3379C99.0371 31.3379 98.0703 32.207 97.875 33.7988H102.729C102.553 32.1582 101.615 31.3379 100.326 31.3379ZM111.215 40.2051C108.109 40.2051 106.234 38.1445 106.234 34.8535V34.8438C106.234 31.582 108.139 29.4336 111.098 29.4336C114.057 29.4336 115.893 31.5137 115.893 34.6387V35.4199H108.646C108.686 37.2363 109.682 38.3105 111.264 38.3105C112.475 38.3105 113.266 37.666 113.5 36.9727L113.52 36.9043H115.795L115.766 37.0117C115.443 38.6035 113.92 40.2051 111.215 40.2051ZM111.127 31.3379C109.838 31.3379 108.871 32.207 108.676 33.7988H113.529C113.354 32.1582 112.416 31.3379 111.127 31.3379ZM121.713 40V25.9082H123.979L130.844 35.7812H130.902V25.9082H133.402V40H131.156L124.271 30.0879H124.223V40H121.713ZM140.229 40.2051C137.182 40.2051 135.219 38.1738 135.219 34.8242V34.8047C135.219 31.4844 137.211 29.4336 140.219 29.4336C143.236 29.4336 145.238 31.4648 145.238 34.8047V34.8242C145.238 38.1836 143.266 40.2051 140.229 40.2051ZM140.238 38.2422C141.771 38.2422 142.758 36.9922 142.758 34.8242V34.8047C142.758 32.6465 141.762 31.4062 140.219 31.4062C138.705 31.4062 137.699 32.6562 137.699 34.8047V34.8242C137.699 37.002 138.686 38.2422 140.238 38.2422ZM148.764 40L145.961 29.6484H148.402L150.15 37.5977H150.199L152.221 29.6484H154.555L156.576 37.5977H156.635L158.383 29.6484H160.785L157.982 40H155.424L153.383 32.4316H153.334L151.303 40H148.764Z" fill="white" fill-opacity="0.95"/>
</svg>
