<svg width="185" height="28" viewBox="0 0 185 28" fill="none" xmlns="http://www.w3.org/2000/svg">
<path d="M0.858 13.746C0.858 12.29 1.144 10.9987 1.716 9.872C2.30533 8.74533 3.094 7.87867 4.082 7.272C5.08733 6.66533 6.20533 6.362 7.436 6.362C8.51067 6.362 9.44667 6.57867 10.244 7.012C11.0587 7.44533 11.7087 7.99133 12.194 8.65V6.596H15.86V21H12.194V18.894C11.726 19.57 11.076 20.1333 10.244 20.584C9.42933 21.0173 8.48467 21.234 7.41 21.234C6.19667 21.234 5.08733 20.922 4.082 20.298C3.094 19.674 2.30533 18.7987 1.716 17.672C1.144 16.528 0.858 15.2193 0.858 13.746ZM12.194 13.798C12.194 12.914 12.0207 12.16 11.674 11.536C11.3273 10.8947 10.8593 10.4093 10.27 10.08C9.68067 9.73333 9.048 9.56 8.372 9.56C7.696 9.56 7.072 9.72467 6.5 10.054C5.928 10.3833 5.46 10.8687 5.096 11.51C4.74933 12.134 4.576 12.8793 4.576 13.746C4.576 14.6127 4.74933 15.3753 5.096 16.034C5.46 16.6753 5.928 17.1693 6.5 17.516C7.08933 17.8627 7.71333 18.036 8.372 18.036C9.048 18.036 9.68067 17.8713 10.27 17.542C10.8593 17.1953 11.3273 16.71 11.674 16.086C12.0207 15.4447 12.194 14.682 12.194 13.798ZM27.3971 6.388C29.1131 6.388 30.4998 6.934 31.5571 8.026C32.6144 9.10067 33.1431 10.6087 33.1431 12.55V21H29.5031V13.044C29.5031 11.9 29.2171 11.0247 28.6451 10.418C28.0731 9.794 27.2931 9.482 26.3051 9.482C25.2998 9.482 24.5024 9.794 23.9131 10.418C23.3411 11.0247 23.0551 11.9 23.0551 13.044V21H19.4151V6.596H23.0551V8.39C23.5404 7.766 24.1558 7.28067 24.9011 6.934C25.6638 6.57 26.4958 6.388 27.3971 6.388ZM35.6685 13.746C35.6685 12.29 35.9545 10.9987 36.5265 9.872C37.1159 8.74533 37.9045 7.87867 38.8925 7.272C39.8979 6.66533 41.0159 6.362 42.2465 6.362C43.3212 6.362 44.2572 6.57867 45.0545 7.012C45.8692 7.44533 46.5192 7.99133 47.0045 8.65V6.596H50.6705V21H47.0045V18.894C46.5365 19.57 45.8865 20.1333 45.0545 20.584C44.2399 21.0173 43.2952 21.234 42.2205 21.234C41.0072 21.234 39.8979 20.922 38.8925 20.298C37.9045 19.674 37.1159 18.7987 36.5265 17.672C35.9545 16.528 35.6685 15.2193 35.6685 13.746ZM47.0045 13.798C47.0045 12.914 46.8312 12.16 46.4845 11.536C46.1379 10.8947 45.6699 10.4093 45.0805 10.08C44.4912 9.73333 43.8585 9.56 43.1825 9.56C42.5065 9.56 41.8825 9.72467 41.3105 10.054C40.7385 10.3833 40.2705 10.8687 39.9065 11.51C39.5599 12.134 39.3865 12.8793 39.3865 13.746C39.3865 14.6127 39.5599 15.3753 39.9065 16.034C40.2705 16.6753 40.7385 17.1693 41.3105 17.516C41.8999 17.8627 42.5239 18.036 43.1825 18.036C43.8585 18.036 44.4912 17.8713 45.0805 17.542C45.6699 17.1953 46.1379 16.71 46.4845 16.086C46.8312 15.4447 47.0045 14.682 47.0045 13.798ZM57.8656 1.76V21H54.2256V1.76H57.8656ZM75.242 6.596L66.324 27.812H62.45L65.57 20.636L59.798 6.596H63.88L67.598 16.658L71.368 6.596H75.242ZM82.7162 21.234C81.5375 21.234 80.4802 21.026 79.5442 20.61C78.6082 20.1767 77.8628 19.596 77.3082 18.868C76.7708 18.14 76.4762 17.334 76.4242 16.45H80.0902C80.1595 17.0047 80.4282 17.464 80.8962 17.828C81.3815 18.192 81.9795 18.374 82.6902 18.374C83.3835 18.374 83.9208 18.2353 84.3022 17.958C84.7008 17.6807 84.9002 17.3253 84.9002 16.892C84.9002 16.424 84.6575 16.0773 84.1722 15.852C83.7042 15.6093 82.9502 15.3493 81.9102 15.072C80.8355 14.812 79.9515 14.5433 79.2582 14.266C78.5822 13.9887 77.9928 13.564 77.4902 12.992C77.0048 12.42 76.7622 11.6487 76.7622 10.678C76.7622 9.88067 76.9875 9.15267 77.4382 8.494C77.9062 7.83533 78.5648 7.31533 79.4142 6.934C80.2808 6.55267 81.2948 6.362 82.4562 6.362C84.1722 6.362 85.5415 6.79533 86.5642 7.662C87.5868 8.51133 88.1502 9.664 88.2542 11.12H84.7702C84.7182 10.548 84.4755 10.0973 84.0422 9.768C83.6262 9.42133 83.0628 9.248 82.3522 9.248C81.6935 9.248 81.1822 9.36933 80.8182 9.612C80.4715 9.85467 80.2982 10.1927 80.2982 10.626C80.2982 11.1113 80.5408 11.484 81.0262 11.744C81.5115 11.9867 82.2655 12.238 83.2882 12.498C84.3282 12.758 85.1862 13.0267 85.8622 13.304C86.5382 13.5813 87.1188 14.0147 87.6042 14.604C88.1068 15.176 88.3668 15.9387 88.3842 16.892C88.3842 17.724 88.1502 18.4693 87.6822 19.128C87.2315 19.7867 86.5728 20.3067 85.7062 20.688C84.8568 21.052 83.8602 21.234 82.7162 21.234ZM93.2181 4.88C92.5768 4.88 92.0395 4.68067 91.6061 4.282C91.1901 3.866 90.9821 3.35467 90.9821 2.748C90.9821 2.14133 91.1901 1.63867 91.6061 1.24C92.0395 0.823999 92.5768 0.615999 93.2181 0.615999C93.8595 0.615999 94.3881 0.823999 94.8041 1.24C95.2375 1.63867 95.4541 2.14133 95.4541 2.748C95.4541 3.35467 95.2375 3.866 94.8041 4.282C94.3881 4.68067 93.8595 4.88 93.2181 4.88ZM95.0121 6.596V21H91.3721V6.596H95.0121ZM104.12 21.234C102.942 21.234 101.884 21.026 100.948 20.61C100.012 20.1767 99.2671 19.596 98.7125 18.868C98.1751 18.14 97.8805 17.334 97.8285 16.45H101.494C101.564 17.0047 101.832 17.464 102.3 17.828C102.786 18.192 103.384 18.374 104.094 18.374C104.788 18.374 105.325 18.2353 105.706 17.958C106.105 17.6807 106.304 17.3253 106.304 16.892C106.304 16.424 106.062 16.0773 105.576 15.852C105.108 15.6093 104.354 15.3493 103.314 15.072C102.24 14.812 101.356 14.5433 100.662 14.266C99.9865 13.9887 99.3971 13.564 98.8945 12.992C98.4091 12.42 98.1665 11.6487 98.1665 10.678C98.1665 9.88067 98.3918 9.15267 98.8425 8.494C99.3105 7.83533 99.9691 7.31533 100.818 6.934C101.685 6.55267 102.699 6.362 103.86 6.362C105.576 6.362 106.946 6.79533 107.968 7.662C108.991 8.51133 109.554 9.664 109.658 11.12H106.174C106.122 10.548 105.88 10.0973 105.446 9.768C105.03 9.42133 104.467 9.248 103.756 9.248C103.098 9.248 102.586 9.36933 102.222 9.612C101.876 9.85467 101.702 10.1927 101.702 10.626C101.702 11.1113 101.945 11.484 102.43 11.744C102.916 11.9867 103.67 12.238 104.692 12.498C105.732 12.758 106.59 13.0267 107.266 13.304C107.942 13.5813 108.523 14.0147 109.008 14.604C109.511 15.176 109.771 15.9387 109.788 16.892C109.788 17.724 109.554 18.4693 109.086 19.128C108.636 19.7867 107.977 20.3067 107.11 20.688C106.261 21.052 105.264 21.234 104.12 21.234Z" fill="black" fill-opacity="0.9"/>
<path d="M116.416 8.676C116.884 8.01733 117.526 7.47133 118.34 7.038C119.172 6.58733 120.117 6.362 121.174 6.362C122.405 6.362 123.514 6.66533 124.502 7.272C125.508 7.87867 126.296 8.74533 126.868 9.872C127.458 10.9813 127.752 12.2727 127.752 13.746C127.752 15.2193 127.458 16.528 126.868 17.672C126.296 18.7987 125.508 19.674 124.502 20.298C123.514 20.922 122.405 21.234 121.174 21.234C120.117 21.234 119.181 21.0173 118.366 20.584C117.569 20.1507 116.919 19.6047 116.416 18.946V27.864H112.776V6.596H116.416V8.676ZM124.034 13.746C124.034 12.8793 123.852 12.134 123.488 11.51C123.142 10.8687 122.674 10.3833 122.084 10.054C121.512 9.72467 120.888 9.56 120.212 9.56C119.554 9.56 118.93 9.73333 118.34 10.08C117.768 10.4093 117.3 10.8947 116.936 11.536C116.59 12.1773 116.416 12.9313 116.416 13.798C116.416 14.6647 116.59 15.4187 116.936 16.06C117.3 16.7013 117.768 17.1953 118.34 17.542C118.93 17.8713 119.554 18.036 120.212 18.036C120.888 18.036 121.512 17.8627 122.084 17.516C122.674 17.1693 123.142 16.6753 123.488 16.034C123.852 15.3927 124.034 14.63 124.034 13.746ZM134.038 1.76V21H130.398V1.76H134.038ZM136.698 13.746C136.698 12.29 136.984 10.9987 137.556 9.872C138.145 8.74533 138.934 7.87867 139.922 7.272C140.927 6.66533 142.045 6.362 143.276 6.362C144.351 6.362 145.287 6.57867 146.084 7.012C146.899 7.44533 147.549 7.99133 148.034 8.65V6.596H151.7V21H148.034V18.894C147.566 19.57 146.916 20.1333 146.084 20.584C145.269 21.0173 144.325 21.234 143.25 21.234C142.037 21.234 140.927 20.922 139.922 20.298C138.934 19.674 138.145 18.7987 137.556 17.672C136.984 16.528 136.698 15.2193 136.698 13.746ZM148.034 13.798C148.034 12.914 147.861 12.16 147.514 11.536C147.167 10.8947 146.699 10.4093 146.11 10.08C145.521 9.73333 144.888 9.56 144.212 9.56C143.536 9.56 142.912 9.72467 142.34 10.054C141.768 10.3833 141.3 10.8687 140.936 11.51C140.589 12.134 140.416 12.8793 140.416 13.746C140.416 14.6127 140.589 15.3753 140.936 16.034C141.3 16.6753 141.768 17.1693 142.34 17.516C142.929 17.8627 143.553 18.036 144.212 18.036C144.888 18.036 145.521 17.8713 146.11 17.542C146.699 17.1953 147.167 16.71 147.514 16.086C147.861 15.4447 148.034 14.682 148.034 13.798ZM154.319 13.798C154.319 12.3073 154.622 11.0073 155.229 9.898C155.836 8.77133 156.676 7.90467 157.751 7.298C158.826 6.674 160.056 6.362 161.443 6.362C163.228 6.362 164.702 6.81267 165.863 7.714C167.042 8.598 167.83 9.846 168.229 11.458H164.303C164.095 10.834 163.74 10.3487 163.237 10.002C162.752 9.638 162.145 9.456 161.417 9.456C160.377 9.456 159.554 9.83733 158.947 10.6C158.34 11.3453 158.037 12.4113 158.037 13.798C158.037 15.1673 158.34 16.2333 158.947 16.996C159.554 17.7413 160.377 18.114 161.417 18.114C162.89 18.114 163.852 17.4553 164.303 16.138H168.229C167.83 17.698 167.042 18.9373 165.863 19.856C164.684 20.7747 163.211 21.234 161.443 21.234C160.056 21.234 158.826 20.9307 157.751 20.324C156.676 19.7 155.836 18.8333 155.229 17.724C154.622 16.5973 154.319 15.2887 154.319 13.798ZM184.286 13.486C184.286 14.006 184.251 14.474 184.182 14.89H173.652C173.738 15.93 174.102 16.7447 174.744 17.334C175.385 17.9233 176.174 18.218 177.11 18.218C178.462 18.218 179.424 17.6373 179.996 16.476H183.922C183.506 17.8627 182.708 19.0067 181.53 19.908C180.351 20.792 178.904 21.234 177.188 21.234C175.801 21.234 174.553 20.9307 173.444 20.324C172.352 19.7 171.494 18.8247 170.87 17.698C170.263 16.5713 169.96 15.2713 169.96 13.798C169.96 12.3073 170.263 10.9987 170.87 9.872C171.476 8.74533 172.326 7.87867 173.418 7.272C174.51 6.66533 175.766 6.362 177.188 6.362C178.557 6.362 179.779 6.65667 180.854 7.246C181.946 7.83533 182.786 8.676 183.376 9.768C183.982 10.8427 184.286 12.082 184.286 13.486ZM180.516 12.446C180.498 11.51 180.16 10.7647 179.502 10.21C178.843 9.638 178.037 9.352 177.084 9.352C176.182 9.352 175.42 9.62933 174.796 10.184C174.189 10.7213 173.816 11.4753 173.678 12.446H180.516Z" fill="#0080FF"/>
</svg>
