<svg width="53" height="50" viewBox="0 0 53 50" fill="none" xmlns="http://www.w3.org/2000/svg">
<g clip-path="url(#clip0_491_617)">
<path d="M51.7351 36.2781C51.1514 37.2817 50.5935 38.3111 49.9643 39.2825C48.9395 40.8715 47.7071 42.3062 46.3125 43.5993C44.905 44.9053 43.3612 46.0182 41.6748 46.9511C40.4683 47.6201 39.21 48.1734 37.8997 48.6173C36.2327 49.1834 34.5333 49.6016 32.7755 49.7624C31.3939 49.8911 29.9994 50.0198 28.6178 49.9876C26.9832 49.949 25.3551 49.7624 23.727 49.5759C21.2882 49.2992 19.0504 48.3535 16.8515 47.3435C14.1856 46.1147 11.7857 44.4742 9.59328 42.5313C7.21928 40.4276 5.22148 38.0087 3.63232 35.2745C2.10154 32.6433 1.01184 29.8448 0.428065 26.8597C0.0323978 24.8332 -0.0908429 22.7938 0.0583432 20.7287C0.194557 18.863 0.590224 17.0488 1.25183 15.3054C1.92641 13.5362 2.86045 11.9086 4.07988 10.4418C4.94905 9.39315 5.77931 8.31235 6.62902 7.25085C6.66145 7.21225 6.69388 7.17365 6.77821 7.07715C6.49281 7.76552 6.22038 8.38312 5.9739 9.01359C5.48742 10.2745 5.17608 11.5805 4.96203 12.9122C4.74798 14.2632 4.68311 15.6142 4.72203 16.9716C4.78041 18.9209 5.10473 20.8381 5.64309 22.7166C6.21389 24.7174 7.00523 26.6345 8.04305 28.4423C9.18464 30.4495 10.5533 32.3023 12.1489 33.9879C13.8159 35.7506 15.6515 37.3203 17.6753 38.6649C19.939 40.1767 22.3779 41.354 24.953 42.2418C26.5421 42.7887 28.1832 43.1425 29.8502 43.3612C31.4004 43.5671 32.9571 43.6829 34.5203 43.6636C36.5311 43.6379 38.5159 43.4256 40.4748 42.9559C43.0953 42.3319 45.5407 41.309 47.772 39.7843C49.0498 38.9094 50.3924 37.6935 51.6378 36.2202C51.6703 36.2395 51.7027 36.2588 51.7351 36.2781Z" fill="#121212"/>
<path d="M53.0002 23.0504C52.41 24.6202 51.5602 26.0419 50.503 27.3543C48.8814 29.3744 46.8706 30.9184 44.5161 31.9928C42.8945 32.7326 41.1821 33.183 39.4113 33.4339C37.8092 33.6655 36.2006 33.6848 34.5984 33.5883C33.392 33.5175 32.1596 33.3953 30.9985 33.0865C28.4234 32.411 26.0754 31.2272 23.9284 29.6575C22.7479 28.789 21.6776 27.7982 20.6528 26.7496C19.4463 25.5144 18.5252 24.0926 17.682 22.613C16.6118 20.7409 15.9502 18.7337 15.6129 16.6171C15.3988 15.2596 15.3858 13.8893 15.5091 12.519C15.6777 10.6469 16.1642 8.85203 17.0853 7.21152C17.6626 6.17576 18.3825 5.22362 19.0506 4.23932C19.4074 3.71178 19.7901 3.19711 20.1987 2.69531C19.9976 3.19068 19.7836 3.68605 19.5955 4.18785C19.0831 5.54529 18.8171 6.96062 18.7198 8.40813C18.6096 10.1194 18.7847 11.7985 19.1933 13.4583C19.589 15.0538 20.2052 16.5656 21.016 18.0003C21.8073 19.4092 22.7479 20.7087 23.8376 21.9053C25.2127 23.4171 26.7629 24.7167 28.4948 25.8103C30.0126 26.7689 31.6212 27.528 33.3206 28.107C34.7541 28.596 36.2135 28.9434 37.7184 29.0785C38.7173 29.1686 39.7226 29.2329 40.7215 29.2007C43.1345 29.1107 45.4566 28.5703 47.623 27.4959C49.8154 26.3958 51.5992 24.929 53.0002 23.0504Z" fill="#121212"/>
<path d="M51.3722 13.6323C50.4381 15.2985 49.316 16.6817 47.7657 17.6917C46.3193 18.6374 44.7236 19.1199 43.0112 19.2743C41.5194 19.4094 40.034 19.3322 38.5811 18.9655C36.5898 18.4701 34.8125 17.5116 33.2298 16.2185C31.5045 14.8031 30.1748 13.0854 29.3445 11.0139C28.3715 8.56922 28.2548 6.10525 29.1759 3.60268C29.6429 2.33531 30.4277 1.2738 31.2255 0.205867C31.2774 0.1351 31.3293 0.0707669 31.3812 0C31.2126 0.488935 31.031 0.971436 30.8883 1.46037C30.4991 2.78564 30.4537 4.13664 30.6807 5.48765C31.0893 7.93875 32.205 10.0618 33.859 11.8953C36.0838 14.3592 38.86 15.8325 42.1551 16.3471C43.8739 16.6173 45.5863 16.6688 47.2858 16.2185C48.8425 15.8067 50.1462 15.009 51.1905 13.7867C51.2359 13.7481 51.2749 13.7223 51.3722 13.6323Z" fill="#121212"/>
</g>
<defs>
<clipPath id="clip0_491_617">
<rect width="53" height="50" fill="white"/>
</clipPath>
</defs>
</svg>
