<svg width="54" height="50" viewBox="0 0 54 50" fill="none" xmlns="http://www.w3.org/2000/svg">
<path d="M45.0318 6.83921C39.7449 2.1334 32.8477 -0.308738 25.8045 0.0312866C18.7614 0.371311 12.127 3.46673 7.30985 8.66033C2.49273 13.8539 -0.127745 20.7367 0.00479336 27.8474C0.137331 34.9581 3.01244 41.7367 8.0197 46.744C10.1348 48.8368 12.9814 50.006 15.9443 49.999H38.0016C40.8061 50.0375 43.5179 48.9871 45.5761 47.0652C48.2837 44.458 50.429 41.3156 51.878 37.8344C53.327 34.3531 54.0485 30.6078 53.9975 26.8325C53.9464 23.0573 53.1238 19.3332 51.5812 15.8931C50.0385 12.453 47.8089 9.37086 45.0318 6.83921ZM43.7197 34.4849C43.4828 35.0392 43.0375 35.476 42.4815 35.6994C41.9255 35.9228 41.3044 35.9144 40.7545 35.6762L29.6502 30.8655C28.8543 31.4665 27.8841 31.7859 26.8899 31.7742C25.8957 31.7624 24.9332 31.4201 24.1515 30.8004C23.3699 30.1806 22.8128 29.318 22.5667 28.3464C22.3207 27.3748 22.3993 26.3485 22.7905 25.4265C23.1817 24.5046 23.8635 23.7386 24.7303 23.2474C25.597 22.7561 26.6003 22.567 27.5845 22.7095C28.5686 22.8519 29.4787 23.3179 30.1735 24.0352C30.8684 24.7524 31.3091 25.6809 31.4275 26.6766L42.5273 31.4919C42.7997 31.6101 43.0463 31.7814 43.2531 31.9958C43.4599 32.2103 43.6228 32.4637 43.7325 32.7416C43.8421 33.0196 43.8965 33.3166 43.8923 33.6157C43.8882 33.9148 43.8257 34.2101 43.7084 34.4849H43.7197ZM45.1718 27.221C44.5777 27.2957 43.9785 27.1294 43.5058 26.7587C43.0332 26.3879 42.7259 25.843 42.6515 25.2438C42.2239 21.7228 40.6328 18.4498 38.1348 15.9527C35.17 12.9623 31.1488 11.2824 26.956 11.2824C22.7631 11.2824 18.7419 12.9623 15.7771 15.9527C12.8123 18.943 11.1467 22.9988 11.1467 27.2278C11.1467 31.4568 12.8123 35.5126 15.7771 38.5029C16.003 38.7421 16.2559 38.9585 16.5021 39.1863C16.9513 39.5862 17.2246 40.1497 17.2619 40.7529C17.2991 41.356 17.0973 41.9494 16.7008 42.4025C16.3043 42.8556 15.7456 43.1313 15.1476 43.1688C14.5495 43.2064 13.9612 43.0029 13.512 42.603C13.1936 42.3205 12.8864 42.0267 12.5838 41.7215C8.7715 37.8757 6.62999 32.66 6.63042 27.2216C6.63084 21.7833 8.77316 16.5679 12.5861 12.7228C16.399 8.87761 21.5702 6.71766 26.9621 6.71809C32.3539 6.71851 37.5248 8.87928 41.3371 12.725C44.5438 15.9386 46.5857 20.1465 47.1343 24.6721C47.172 24.9695 47.151 25.2715 47.0727 25.5607C46.9943 25.85 46.8601 26.1208 46.6778 26.3576C46.4955 26.5944 46.2686 26.7925 46.0102 26.9407C45.7517 27.0889 45.4668 27.1841 45.1718 27.221Z" fill="#121212"/>
</svg>
