<svg width="40" height="50" viewBox="0 0 40 50" fill="none" xmlns="http://www.w3.org/2000/svg">
<g clip-path="url(#clip0_491_506)">
<path d="M25.1568 10.4151C33.2854 10.4008 40.0854 17.0388 39.9997 25.179C39.9139 34.4351 33.1425 40.1003 25.2139 40.1146C17.4425 40.1289 10.5282 34.6926 10.3425 25.2648C10.1854 17.1676 16.9854 10.4437 25.1568 10.4151ZM23.8568 37.5109C23.8568 29.3564 23.8568 21.2305 23.8568 13.1189C17.2139 13.8628 12.5282 19.3278 12.9997 26.2663C13.4711 32.8185 18.4282 37.0102 23.8568 37.5109Z" fill="#121212"/>
<path d="M18.9428 42.0739C18.9285 42.1598 18.9142 42.3458 18.8428 42.5031C17.8285 44.7635 16.8285 47.0239 15.7999 49.2699C15.5428 49.8279 14.9856 50.0711 14.4285 49.9709C13.8999 49.8708 13.4428 49.4416 13.3856 48.8837C13.3571 48.6262 13.3999 48.34 13.4999 48.1111C14.4714 45.908 15.4571 43.7191 16.4571 41.5303C16.7428 40.8865 17.2999 40.629 17.9428 40.7578C18.5142 40.8865 18.9285 41.3872 18.9428 42.0739Z" fill="#121212"/>
<path d="M9.89929 17.4245C9.91358 18.5261 8.94215 19.1269 7.99929 18.6978C6.785 18.1398 5.57072 17.5676 4.37072 16.9953C3.45643 16.5661 2.52786 16.137 1.61357 15.7078C0.813574 15.3215 0.513574 14.6205 0.842145 13.9195C1.17072 13.2471 1.885 13.0182 2.67072 13.3759C4.79929 14.363 6.92786 15.3644 9.07072 16.3659C9.57072 16.5948 9.85643 16.981 9.89929 17.4245Z" fill="#121212"/>
<path d="M20.3425 7.95419C20.3567 8.64089 19.9282 9.18452 19.371 9.31328C18.7139 9.45634 18.1139 9.15591 17.8567 8.49783C17.4996 7.56793 17.1853 6.60941 16.8425 5.67951C16.3996 4.42057 15.9425 3.16163 15.4996 1.90269C15.1996 1.05863 15.4853 0.357627 16.2139 0.0858098C16.9425 -0.186007 17.6139 0.185953 17.9139 1.03002C18.671 3.16163 19.4425 5.29325 20.1853 7.43917C20.271 7.62515 20.3139 7.83974 20.3425 7.95419Z" fill="#121212"/>
<path d="M9.29953 31.6448C9.27095 32.2456 8.97095 32.6605 8.41381 32.8608C6.18524 33.7048 3.95667 34.5489 1.71381 35.3787C1.0281 35.6362 0.342383 35.3071 0.0852401 34.6634C-0.186188 33.991 0.113812 33.2757 0.828097 33.0038C2.21381 32.4602 3.6281 31.9452 5.0281 31.4159C5.91381 31.0868 6.78524 30.7292 7.68524 30.443C8.51381 30.1855 9.29953 30.8007 9.29953 31.6448Z" fill="#121212"/>
<path d="M5.34234 26.5953C4.82806 26.5953 4.31377 26.6096 3.79949 26.5953C3.07092 26.5667 2.52806 26.0517 2.51377 25.365C2.4852 24.664 3.02806 24.0631 3.77092 24.0488C4.81377 24.0202 5.87092 24.0202 6.91377 24.0488C7.65663 24.0631 8.19949 24.664 8.17092 25.365C8.15663 26.0517 7.61377 26.581 6.8852 26.6096C6.3852 26.6096 5.85663 26.5953 5.34234 26.5953Z" fill="#121212"/>
<path d="M10.2281 41.7455C9.54242 41.7455 9.1567 41.5166 8.92813 41.0731C8.68528 40.6296 8.67099 40.1289 8.99956 39.7712C9.79956 38.8985 10.6424 38.0402 11.5281 37.239C11.9996 36.8098 12.7424 36.9386 13.171 37.3964C13.6138 37.8685 13.6996 38.5695 13.2567 39.0559C12.4853 39.9 11.671 40.7011 10.8424 41.4737C10.6567 41.6453 10.3424 41.7026 10.2281 41.7455Z" fill="#121212"/>
<path d="M23.9141 45.1787C23.9141 44.6636 23.8998 44.1486 23.9141 43.6336C23.9426 42.9183 24.4569 42.4176 25.1284 42.389C25.7998 42.3604 26.3998 42.8181 26.4426 43.5335C26.4998 44.6493 26.4998 45.7795 26.4426 46.8954C26.4141 47.6107 25.8284 48.0828 25.1569 48.0685C24.4712 48.0542 23.9426 47.5392 23.9141 46.7953C23.8855 46.2373 23.9141 45.708 23.9141 45.1787Z" fill="#121212"/>
<path d="M26.4712 5.46474C26.4712 5.95115 26.4855 6.42325 26.4712 6.90966C26.4426 7.76803 25.914 8.29736 25.1569 8.28305C24.414 8.26874 23.9283 7.72511 23.914 6.89535C23.8997 5.93684 23.8997 4.96402 23.914 4.00551C23.9283 3.17575 24.4283 2.64643 25.1569 2.63212C25.8998 2.61781 26.4283 3.14714 26.4712 3.96259C26.4855 4.46331 26.4712 4.96402 26.4712 5.46474Z" fill="#121212"/>
<path d="M12.0276 13.6334C11.8705 13.5476 11.5276 13.4475 11.2991 13.2329C10.5705 12.5462 9.8705 11.8452 9.18478 11.1155C8.65621 10.5719 8.64193 9.79938 9.14193 9.28436C9.65621 8.75503 10.4276 8.74073 10.9991 9.29867C11.7134 9.98536 12.4134 10.7007 13.1134 11.416C13.5134 11.8309 13.6134 12.3173 13.3848 12.8466C13.1705 13.3616 12.7562 13.6048 12.0276 13.6334Z" fill="#121212"/>
</g>
<defs>
<clipPath id="clip0_491_506">
<rect width="40" height="50" fill="white"/>
</clipPath>
</defs>
</svg>
