<svg width="44" height="50" viewBox="0 0 44 50" fill="none" xmlns="http://www.w3.org/2000/svg">
<g clip-path="url(#clip0_491_615)">
<path d="M22.8776 50C22.2927 50 21.7078 50 21.1229 50C19.089 49.4424 17.0419 48.898 15.0081 48.3404C11.9374 47.4907 8.86668 46.641 5.79598 45.7913C4.57302 45.4461 3.81532 44.5167 3.70897 43.2554C3.48299 40.6665 3.24372 38.0775 3.01773 35.4753C2.47272 29.461 1.9277 23.4599 1.39598 17.4456C0.930725 12.3606 0.478761 7.27562 0.0135047 2.19065C-0.119426 0.690388 0.505348 0 2.00746 0C15.3271 0 28.66 0 41.9797 0C43.4818 0 44.1066 0.703664 43.9603 2.20393C43.6147 6.02762 43.2558 9.8513 42.9235 13.675C42.5114 18.2422 42.1259 22.8093 41.7138 27.3765C41.2353 32.6739 40.7567 37.9713 40.2782 43.2687C40.1718 44.53 39.4141 45.4594 38.1911 45.7913C35.4794 46.5481 32.7676 47.2916 30.0558 48.035C27.6763 48.6989 25.2703 49.3494 22.8776 50ZM29.3646 25.385C29.0987 27.8678 28.8461 30.2708 28.567 32.6739C28.5537 32.82 28.3277 33.0058 28.1682 33.0589C26.2274 33.7493 24.2733 34.4264 22.3192 35.1036C22.1331 35.1699 21.8939 35.1832 21.7211 35.1301C19.7404 34.453 17.7464 33.7759 15.7791 33.0589C15.6328 33.0058 15.46 32.7934 15.4334 32.6341C15.2872 31.5852 15.1942 30.5364 15.0745 29.4875C14.9815 28.7042 14.5827 28.3324 13.7851 28.3324C13.054 28.3192 12.3229 28.3324 11.5918 28.3324C10.6081 28.3324 10.1827 28.7839 10.2757 29.7531C10.4486 31.5852 10.6745 33.4041 10.8473 35.2363C10.9271 36.1126 11.3525 36.6702 12.1899 36.9623C15.2075 37.9979 18.2117 39.0467 21.2292 40.0823C21.7476 40.2549 22.2395 40.2682 22.7579 40.0823C25.7887 39.0069 28.8328 37.9448 31.8769 36.8826C32.6878 36.6038 33.0999 36.0462 33.193 35.1832C33.4854 32.2756 33.8177 29.368 34.1368 26.4472C34.283 25.0929 34.4159 23.7254 34.5621 22.3712C34.6153 21.8003 34.4691 21.3091 34.0437 20.9108C33.6449 20.539 33.1664 20.4594 32.6479 20.4594C29.8564 20.4594 27.0782 20.4726 24.2866 20.4461C24.0606 20.4461 23.715 20.3133 23.6486 20.154C23.5156 19.8088 23.8745 19.7292 24.1271 19.6097C24.2069 19.5698 24.2733 19.5433 24.3531 19.5167C27.8757 18.0828 31.3984 16.6357 34.9211 15.2018C35.1736 15.0956 35.373 15.0027 35.3996 14.684C35.5325 13.3298 35.7053 11.9756 35.8383 10.6081C35.9047 9.93096 35.6256 9.65215 34.9343 9.65215C26.3337 9.65215 17.7331 9.65215 9.13254 9.65215C8.42801 9.65215 8.16215 9.94424 8.22861 10.6612C8.32166 11.6038 8.42801 12.5332 8.52106 13.4758C8.6274 14.4318 8.76033 14.5512 9.70414 14.5512C13.5857 14.5512 17.454 14.5512 21.3356 14.5512C21.6147 14.5512 22.0002 14.4185 22.0667 14.8168C22.08 14.9495 21.7344 15.2018 21.5217 15.2947C20.2588 15.8391 18.9694 16.3569 17.6933 16.8879C15.2075 17.9102 12.735 18.9326 10.2492 19.9549C9.57121 20.2337 9.31864 20.6187 9.37181 21.256C9.46486 22.1721 9.57121 23.1014 9.67755 24.0175C9.81048 25.1062 10.1295 25.3717 11.2461 25.3717C17.0818 25.3717 22.9174 25.3717 28.7398 25.3717C28.8993 25.385 29.0854 25.385 29.3646 25.385Z" fill="#121212"/>
</g>
<defs>
<clipPath id="clip0_491_615">
<rect width="44" height="50" fill="white"/>
</clipPath>
</defs>
</svg>
