<svg width="46" height="50" viewBox="0 0 46 50" fill="none" xmlns="http://www.w3.org/2000/svg">
<g clip-path="url(#clip0_491_536)">
<path d="M14.3862 50.0003C13.3029 49.792 12.2064 49.6488 11.1495 49.3493C5.09897 47.6436 0.594089 42.305 0.1185 36.1201C-0.0796615 33.4508 0.0656573 30.7555 -0.000396724 28.0732C-0.0136075 27.4222 0.197765 27.0706 0.752619 26.7321C4.59696 24.3883 8.41488 22.0055 12.246 19.6488C14.4258 21.667 17.1736 21.2764 18.825 19.6357C20.0008 20.3649 21.1897 21.0941 22.3655 21.8232C25.153 23.542 27.9272 25.2738 30.7147 26.9795C31.0186 27.1618 31.1242 27.3701 31.1242 27.7217C31.111 30.0003 31.1242 32.279 31.111 34.5576C31.0846 42.1357 25.8267 48.3727 18.2701 49.779C17.7681 49.8701 17.2661 49.9352 16.7641 50.0133C15.9715 50.0003 15.1788 50.0003 14.3862 50.0003Z" fill="#121212"/>
<path d="M39.6457 49.9999C39.2758 49.7134 38.8795 49.453 38.5492 49.1275C37.2017 47.8254 35.8806 46.5103 34.5595 45.1952C34.0707 44.7004 33.965 44.0624 34.2425 43.4895C34.5067 42.9426 35.088 42.578 35.6957 42.6952C36.0656 42.7603 36.4487 42.9556 36.7261 43.203C37.3338 43.7368 37.8754 44.3488 38.4435 44.9217C38.4831 44.8957 38.5228 44.8827 38.5624 44.8566C38.5624 44.6874 38.5624 44.5181 38.5624 44.3358C38.5624 41.328 38.5624 38.3202 38.5624 35.3124C38.5624 34.1665 39.6853 33.4504 40.6893 33.9452C41.297 34.2447 41.5348 34.7655 41.5348 35.4296C41.5348 38.3853 41.5348 41.354 41.5348 44.3098C41.5348 44.4921 41.5348 44.6613 41.5348 44.9217C41.6801 44.8176 41.7726 44.7525 41.8651 44.6744C42.3935 44.1535 42.9087 43.6327 43.4372 43.1249C44.0713 42.5259 44.9961 42.5259 45.5641 43.1119C46.1322 43.6848 46.1454 44.5702 45.5377 45.1822C44.0713 46.6535 42.5785 48.1119 41.0857 49.5572C40.8875 49.7525 40.5836 49.8566 40.3326 49.9999C40.1081 49.9999 39.8835 49.9999 39.6457 49.9999Z" fill="#121212"/>
<path d="M40.4379 0C40.8078 0.286458 41.2041 0.546875 41.5344 0.872396C42.8687 2.16146 44.1898 3.46354 45.4977 4.76562C46.3696 5.63802 46.0129 6.97917 44.8503 7.26562C44.2691 7.40885 43.7803 7.21354 43.3707 6.8099C42.7894 6.23698 42.2214 5.65104 41.5344 4.96094C41.5344 5.27344 41.5344 5.44271 41.5344 5.61198C41.5344 8.60677 41.5344 11.6016 41.5344 14.5964C41.5344 15.7552 40.5304 16.4844 39.5132 16.0938C38.9055 15.8594 38.562 15.3385 38.562 14.5833C38.562 11.6016 38.562 8.63281 38.562 5.65104C38.562 5.48177 38.562 5.29948 38.562 5.13021C38.5224 5.10417 38.4827 5.09115 38.4431 5.0651C37.8618 5.65104 37.2805 6.23698 36.6993 6.82292C36.2897 7.22656 35.8009 7.42187 35.2197 7.26562C34.1364 6.99219 33.7004 5.70312 34.4666 4.90885C35.9727 3.35938 37.5315 1.86198 39.0772 0.351562C39.2357 0.195312 39.4603 0.117187 39.6585 0C39.9095 0 40.1737 0 40.4379 0Z" fill="#121212"/>
<path d="M17.0814 0.078125C19.1951 0.273438 21.1503 0.820312 22.947 1.83594C28.1124 4.7526 30.8735 9.15365 31.0981 15.013C31.2037 17.8255 31.1245 20.638 31.1245 23.4505C31.1245 23.5286 31.1113 23.6068 31.0981 23.737C30.9131 23.6328 30.7678 23.5677 30.6357 23.4766C27.2141 21.3542 23.7925 19.2448 20.3709 17.1354C20.0935 16.9661 20.0142 16.7839 20.0142 16.4714C20.0142 15.2214 20.067 13.9583 19.9614 12.7214C19.816 11.0807 18.8781 9.9349 17.3985 9.20573C17.2531 9.1276 17.0682 8.91927 17.0682 8.77604C17.055 5.96354 17.055 3.15104 17.055 0.338542C17.0418 0.260417 17.055 0.195312 17.0814 0.078125Z" fill="#121212"/>
<path d="M14.07 0.0908203C14.07 0.286133 14.07 0.442383 14.07 0.598633C14.07 3.2679 14.0568 5.93717 14.0832 8.60645C14.0832 8.95801 13.9643 9.10124 13.6604 9.25749C12.0487 10.0518 11.1636 11.3408 11.1108 13.1377C11.0843 14.2705 11.1108 15.4163 11.0843 16.5492C11.0843 16.7184 10.9786 16.9658 10.8333 17.057C7.29283 19.2575 3.73913 21.458 0.185424 23.6455C0.159003 23.6585 0.11937 23.6715 0.0401056 23.6976C0.0268948 23.5283 0.013684 23.3851 0.013684 23.2288C0.013684 20.6117 0.000473168 17.9945 0.013684 15.3643C0.0401056 7.61686 5.73396 1.19759 13.5151 0.129883C13.6736 0.103841 13.8454 0.103841 14.07 0.0908203Z" fill="#121212"/>
<path d="M34.0967 24.974C34.1099 21.7448 36.7785 19.1277 40.0812 19.1407C43.3443 19.1537 46.0129 21.8099 45.9997 25.0391C45.9732 28.2422 43.2914 30.8594 40.0284 30.8594C36.7521 30.8594 34.0835 28.2162 34.0967 24.974Z" fill="#121212"/>
<path d="M14.0693 14.9221C14.0693 14.3492 14.0561 13.7763 14.0693 13.2164C14.0958 12.3961 14.6903 11.7841 15.4961 11.745C16.2491 11.719 16.9757 12.2789 17.0154 13.0731C17.0682 14.3101 17.0814 15.5471 17.0154 16.7841C16.9757 17.6044 16.2623 18.1382 15.4565 18.0992C14.6903 18.0601 14.0958 17.4481 14.0826 16.6408C14.0561 16.0549 14.0693 15.495 14.0693 14.9221Z" fill="#121212"/>
</g>
<defs>
<clipPath id="clip0_491_536">
<rect width="46" height="50" fill="white"/>
</clipPath>
</defs>
</svg>
