<svg width="51" height="50" viewBox="0 0 51 50" fill="none" xmlns="http://www.w3.org/2000/svg">
<path d="M50 3.8151C50 8.08594 50 12.3437 50 16.6146C48.9974 16.0547 47.9167 15.8203 46.7708 15.8333C42.3438 15.8464 37.9297 15.8333 33.5026 15.8464C30.1172 15.8464 27.5521 18.4245 27.5391 21.8099C27.5391 24.1406 27.5391 26.4583 27.5391 28.7891C27.5391 28.9583 27.5391 29.1276 27.5391 29.3229C18.3073 29.3229 9.15365 29.3229 0 29.3229C0 20.8073 0 12.3047 0 3.8151C0.130208 3.38542 0.260417 2.96875 0.377604 2.60417C3.11198 5.33854 5.80729 8.03385 8.51562 10.7422C8.15104 10.7422 7.77344 10.7422 7.39583 10.7422C6.52344 10.7552 5.8724 11.3672 5.85938 12.1875C5.84635 13.0208 6.4974 13.6719 7.39583 13.6719C8.97135 13.6849 10.5469 13.6849 12.1354 13.6719C13.0469 13.6719 13.6719 13.0599 13.6719 12.1354C13.6849 10.5599 13.6849 8.98438 13.6719 7.39583C13.6719 6.4974 13.0339 5.84635 12.1875 5.85938C11.3672 5.8724 10.7552 6.51042 10.7422 7.38281C10.7292 7.76042 10.7422 8.15104 10.7422 8.51562C8.02083 5.79427 5.3125 3.08594 2.59115 0.364583C2.98177 0.247396 3.39844 0.130208 3.8151 0C17.9427 0 32.0703 0 46.1979 0C46.3151 0.0390625 46.4453 0.078125 46.5625 0.104167C48.1641 0.507812 49.2448 1.4974 49.7917 3.0599C49.8698 3.30729 49.9349 3.55469 50 3.8151Z" fill="#121212"/>
<path d="M32.9173 50.0003C32.8392 49.9742 32.7741 49.9352 32.696 49.9091C31.3158 49.5185 30.4824 48.4378 30.4824 47.0055C30.4824 43.2294 30.4824 39.4534 30.4824 35.6773C30.4824 31.107 30.4824 26.5367 30.4824 21.9534C30.4824 21.6539 30.5215 21.3414 30.5345 21.094C32.8522 23.4117 35.1699 25.7294 37.4616 28.0341C37.1882 28.0341 36.8105 28.0341 36.4329 28.0341C35.5345 28.0471 34.8704 28.6591 34.8704 29.4924C34.8704 30.3258 35.5215 30.9508 36.4329 30.9508C37.9954 30.9638 39.5579 30.9638 41.1204 30.9508C42.071 30.9508 42.6829 30.3388 42.6829 29.3883C42.696 27.8258 42.696 26.2633 42.6829 24.7008C42.6829 23.7893 42.0579 23.1383 41.2246 23.1383C40.3913 23.1383 39.7663 23.7893 39.7533 24.6878C39.7533 25.0523 39.7533 25.4299 39.7533 25.7294C37.4616 23.4378 35.1569 21.12 32.8392 18.8023C32.9694 18.7893 33.2038 18.7372 33.4381 18.7372C37.9824 18.7372 42.5137 18.7242 47.0579 18.7372C48.4121 18.7372 49.5059 19.5706 49.8965 20.8596C49.9355 20.9638 49.9746 21.068 50.0137 21.1851C50.0137 29.9742 50.0137 38.7633 50.0137 47.5523C49.6751 48.8414 48.8678 49.6617 47.5658 50.0003C42.6829 50.0003 37.8001 50.0003 32.9173 50.0003Z" fill="#121212"/>
<path d="M0 32.2266C9.15365 32.2266 18.3203 32.2266 27.513 32.2266C27.513 34.1927 27.513 36.1198 27.513 38.0859C27.3047 38.0859 27.1094 38.0859 26.9271 38.0859C19.5833 38.0859 12.2526 38.0859 4.90885 38.0859C2.23958 38.0859 0.78125 36.9792 0.0651042 34.4141C0.0520833 34.375 0.0260417 34.3229 0 34.2839C0 33.5937 0 32.9167 0 32.2266Z" fill="#121212"/>
<path d="M15.9249 50C14.8312 49.388 14.6359 48.8932 15.0395 47.6823C15.2999 46.901 15.5603 46.1068 15.8208 45.3255C16.1202 44.4531 16.5629 44.1406 17.4874 44.1406C18.3468 44.1406 19.2062 44.1406 20.0916 44.1406C20.0916 43.099 20.0916 42.0964 20.0916 41.0547C22.5655 41.0547 25.0135 41.0547 27.5395 41.0547C27.5395 41.2109 27.5395 41.3802 27.5395 41.5495C27.5395 43.2943 27.5525 45.026 27.5395 46.7708C27.5265 47.9167 27.7739 48.9974 28.3208 50C24.1932 50 20.0525 50 15.9249 50Z" fill="#121212"/>
</svg>
