<svg width="46" height="50" viewBox="0 0 46 50" fill="none" xmlns="http://www.w3.org/2000/svg">
<g clip-path="url(#clip0_491_611)">
<path d="M0 0C15.3333 0 30.6667 0 46 0C45.9737 0.182292 45.9474 0.351562 45.921 0.533854C44.9997 7.36979 44.0784 14.2057 43.1571 21.0286C42.2752 27.6172 41.3803 34.2057 40.4984 40.8073C40.4589 41.1458 40.3273 41.3151 40.0246 41.4583C35.4312 43.75 30.8509 46.0547 26.2707 48.3594C25.2046 48.8932 24.1516 49.4531 23.0987 50C23.0329 50 22.9671 50 22.9013 50C22.7433 49.9089 22.5986 49.8047 22.4406 49.7266C16.9654 47.0573 11.477 44.388 6.00172 41.7187C5.72532 41.5885 5.54106 41.4583 5.50157 41.0938C4.60658 34.3229 3.68526 27.5521 2.77711 20.7943C1.85579 13.8542 0.921316 6.92708 0 0ZM5.59371 5.01302C5.60687 5.23438 5.62003 5.42969 5.64635 5.61198C6.14649 9.23177 6.63348 12.8646 7.13362 16.4844C8.10758 23.5937 9.09471 30.6901 10.0555 37.7995C10.1082 38.151 10.2529 38.3073 10.5425 38.4375C14.57 40.3906 18.5974 42.3307 22.6249 44.2969C22.9013 44.4271 23.125 44.4401 23.4014 44.2969C27.4552 42.2396 31.509 40.1953 35.5628 38.1641C35.8392 38.0339 35.9182 37.8516 35.9577 37.5651C36.2209 35.4688 36.4973 33.3724 36.7737 31.276C37.287 27.3568 37.8003 23.4375 38.3136 19.5182C38.8269 15.5469 39.3534 11.5885 39.8667 7.61719C39.9851 6.75781 40.0773 5.88542 40.1957 5C28.6266 5.01302 17.1365 5.01302 5.59371 5.01302Z" fill="#121212"/>
<path d="M14.1619 30.0133C15.8992 30.0133 17.5313 30.0133 19.2028 30.0133C19.2423 30.2217 19.3212 30.404 19.3212 30.5993C19.2949 31.3285 19.7029 31.68 20.3347 31.9404C21.1376 32.279 21.8878 32.7217 22.6775 33.0732C22.8617 33.1644 23.1644 33.1514 23.3487 33.0732C24.3095 32.6305 25.2703 32.1488 26.218 31.654C26.3627 31.5889 26.5338 31.4326 26.547 31.3024C26.7971 29.2581 27.034 27.2008 27.2577 25.1436C27.2577 25.1175 27.2446 25.0785 27.2314 25.0003C22.638 25.0003 18.0446 25.0003 13.3985 25.0003C12.7273 20.0003 12.056 15.0394 11.3848 10.0264C19.137 10.0264 26.8497 10.0264 34.6151 10.0264C34.365 11.693 34.115 13.3206 33.8649 14.9873C28.2975 14.9873 22.7828 14.9873 17.1891 14.9873C17.4391 16.667 17.6892 18.3076 17.9393 19.9873C22.9934 19.9873 28.0211 19.9873 33.0883 19.9873C32.9567 20.9508 32.8383 21.8493 32.7198 22.7477C32.2065 26.4977 31.68 30.2607 31.1931 34.0107C31.1273 34.5316 30.9562 34.8311 30.456 35.0654C28.1001 36.1852 25.7705 37.3571 23.4408 38.529C23.1381 38.6852 22.8881 38.6982 22.5722 38.542C20.1504 37.3311 17.7287 36.1331 15.3069 34.9352C15.149 34.8571 14.9253 34.7139 14.8989 34.5837C14.6489 33.0863 14.4119 31.5758 14.1619 30.0133Z" fill="#121212"/>
</g>
<defs>
<clipPath id="clip0_491_611">
<rect width="46" height="50" fill="white"/>
</clipPath>
</defs>
</svg>
