<svg width="50" height="50" viewBox="0 0 50 50" fill="none" xmlns="http://www.w3.org/2000/svg">
<path d="M15.3729 0C22.5139 0 29.642 0 36.783 0C36.783 3.64583 36.783 7.29167 36.783 10.9375C36.783 12.1484 37.3254 12.6953 38.5134 12.6953C41.9483 12.6953 45.3832 12.6953 48.8181 12.6953C48.986 12.6953 49.1667 12.6953 49.3604 12.6953C49.3604 12.9427 49.3604 13.138 49.3604 13.3333C49.3604 18.75 49.3604 24.1667 49.3604 29.5833C49.3604 34.8828 49.3604 40.1953 49.3604 45.4948C49.3604 47.474 48.237 49.1016 46.455 49.7396C46.1709 49.8438 45.8739 49.9089 45.5769 50C37.7902 50 30.0165 50 22.2298 50C22.3331 49.9219 22.4235 49.8307 22.5268 49.7526C25.4452 47.5391 27.4339 44.6615 28.4153 41.1068C28.6735 40.1953 28.8027 39.2448 29.0093 38.2812C29.3837 38.2812 29.7711 38.2812 30.1585 38.2812C33.7613 38.2812 37.3512 38.2812 40.954 38.2812C41.6384 38.2812 42.1549 38.0339 42.439 37.3958C42.8909 36.3932 42.1549 35.3516 40.9927 35.3516C37.1704 35.3516 33.3481 35.3516 29.5129 35.3516C29.3192 35.3516 29.1384 35.3516 28.9318 35.3516C28.7381 33.2682 28.1699 31.3542 27.266 29.4922C29.5129 29.4922 31.6694 29.4922 33.8388 29.4922C36.2277 29.4922 38.6167 29.4922 41.0056 29.4922C41.6642 29.4922 42.1678 29.2187 42.439 28.6068C42.8909 27.6042 42.142 26.5625 40.9798 26.5625C35.9953 26.5625 31.0108 26.5495 26.0134 26.5755C25.5356 26.5755 25.2257 26.4323 24.9029 26.0807C22.1007 22.9818 18.64 21.1719 14.4948 20.8073C13.5393 20.7161 12.5708 20.7943 11.6023 20.7943C11.5894 20.6641 11.5765 20.599 11.5765 20.5339C11.5765 15.1172 11.5636 9.70052 11.5894 4.27083C11.5894 2.91667 12.1576 1.74479 13.2681 0.963542C13.9008 0.533854 14.6627 0.3125 15.3729 0ZM30.4685 20.7031C33.9679 20.7031 37.4674 20.7031 40.9669 20.7031C41.6254 20.7031 42.1291 20.4688 42.4261 19.8568C42.9168 18.8411 42.1807 17.7734 40.9927 17.7734C35.8016 17.7734 30.6105 17.7734 25.4194 17.7734C23.5857 17.7734 21.7391 17.7734 19.9055 17.7734C19.3115 17.7734 18.8466 18.0208 18.5496 18.5417C18.0072 19.5443 18.7175 20.6901 19.9184 20.6901C23.4437 20.7031 26.9561 20.7031 30.4685 20.7031Z" fill="#121212"/>
<path d="M11.9769 49.9997C10.8664 49.7392 9.70418 49.609 8.65822 49.2054C3.66082 47.2653 0.677872 43.5934 0.0838652 38.2158C-0.703839 31.0804 4.1386 24.8825 11.1892 23.7627C18.0719 22.6689 24.8513 27.6689 25.9361 34.6221C27.0853 42.0439 22.2171 48.7497 14.8695 49.8694C14.6112 49.9085 14.3658 49.9476 14.1076 49.9997C13.3974 49.9997 12.6871 49.9997 11.9769 49.9997ZM10.9955 38.958C10.3886 38.333 9.83332 37.7471 9.26514 37.1741C8.56783 36.471 7.68973 36.4319 7.08281 37.0439C6.47589 37.6559 6.52754 38.5413 7.22485 39.2444C8.06421 40.1038 8.91648 40.9502 9.75584 41.7965C10.6468 42.695 11.3958 42.695 12.2868 41.7965C14.4046 39.6611 16.5353 37.5257 18.653 35.3773C18.7692 35.2601 18.8855 35.1429 18.9758 35.0127C19.5828 34.1273 19.1308 32.9424 18.0848 32.734C17.5167 32.6168 17.0518 32.8512 16.6515 33.2549C14.7791 35.1429 12.9196 37.0179 10.9955 38.958Z" fill="#121212"/>
<path d="M39.7012 0.976562C42.6066 3.90625 45.4863 6.8099 48.3917 9.72656C45.5121 9.72656 42.6196 9.72656 39.7141 9.72656C39.7012 6.8099 39.7012 3.90625 39.7012 0.976562Z" fill="#121212"/>
</svg>
