<svg width="42" height="50" viewBox="0 0 42 50" fill="none" xmlns="http://www.w3.org/2000/svg">
<g clip-path="url(#clip0_491_623)">
<path d="M7.76004 0C17.3347 0 26.9094 0 36.4841 0C36.6842 0.0424088 36.8985 0.0989539 37.0986 0.141363C40.0996 0.848176 41.986 3.26548 41.986 6.46028C41.986 18.8154 41.986 31.1563 41.986 43.5115C41.986 44.0345 41.9574 44.5575 41.8431 45.0664C41.2286 47.9785 38.7706 49.9717 35.7553 50C32.397 50.0141 29.0387 50 25.6947 50C20.0214 50 14.348 50 8.67464 50C5.75936 50 3.30138 48.1906 2.57257 45.5188C2.14385 43.9638 2.41537 42.3947 2.32963 40.7831C2.58686 40.7831 2.78692 40.7831 2.9727 40.7831C4.04449 40.769 5.11629 40.7973 6.17379 40.7407C7.91724 40.6418 9.31772 39.0868 9.31772 37.3339C9.31772 35.5669 7.88866 34.0119 6.13092 33.9129C5.04484 33.8564 3.95875 33.8847 2.87267 33.8705C2.70118 33.8705 2.52969 33.8705 2.34392 33.8705C2.34392 32.0469 2.34392 30.2799 2.34392 28.4705C2.54398 28.4705 2.71547 28.4705 2.88696 28.4705C3.95875 28.4563 5.03054 28.4846 6.08805 28.428C7.80292 28.3291 9.06049 27.071 9.28914 25.2757C9.47491 23.7913 8.4317 22.2081 6.90261 21.7557C6.43102 21.6144 5.90227 21.5861 5.4021 21.572C4.38747 21.5437 3.37284 21.5578 2.35821 21.5578C2.35821 19.7342 2.35821 17.9672 2.35821 16.1578C2.57257 16.1578 2.74405 16.1578 2.92983 16.1578C3.98733 16.1436 5.03054 16.186 6.08805 16.1295C7.90295 16.0305 9.33201 14.4897 9.33201 12.7085C9.31772 10.9273 7.91724 9.40062 6.13092 9.30167C5.04484 9.24512 3.95875 9.2734 2.87267 9.25926C2.70118 9.25926 2.52969 9.24512 2.34392 9.23099C2.34392 8.12836 2.32963 7.09641 2.34392 6.05033C2.40108 3.23721 4.33031 0.862313 7.05981 0.183772C7.30275 0.127226 7.53139 0.0565451 7.76004 0ZM32.6399 35.3407C32.6399 34.3936 32.6542 33.4747 32.6399 32.5558C32.5542 29.0925 29.7104 26.2369 26.2092 26.1804C24.2799 26.138 22.365 26.1238 20.4358 26.1804C18.1064 26.2511 16.3058 27.3254 15.0197 29.2338C13.7621 31.1139 13.9907 33.2202 14.005 35.3407C20.2214 35.3407 26.4092 35.3407 32.6399 35.3407ZM23.3368 24.173C26.6522 24.173 29.3245 21.5154 29.3245 18.2358C29.3245 14.9562 26.6379 12.3127 23.3368 12.3127C20.0356 12.3127 17.349 14.9703 17.349 18.2499C17.3347 21.5154 20.0356 24.173 23.3368 24.173Z" fill="black"/>
<path d="M3.88721 10.7573C4.50171 10.7573 5.10191 10.7431 5.71641 10.7573C6.93111 10.7855 7.75996 11.5772 7.77425 12.6798C7.77425 13.7824 6.9454 14.5882 5.74499 14.6165C4.516 14.6447 3.28701 14.6447 2.04373 14.6165C0.84332 14.5882 -0.0141146 13.7541 0.000175996 12.6798C0.0144666 11.5913 0.871901 10.7855 2.07231 10.7573C2.67251 10.7431 3.28701 10.7573 3.88721 10.7573Z" fill="black"/>
<path d="M3.91605 39.2281C3.25868 39.2281 2.60132 39.2564 1.94395 39.2281C0.943608 39.1857 0.229079 38.5778 0.043302 37.6873C-0.128185 36.8249 0.300532 35.9344 1.1008 35.5951C1.37233 35.4679 1.70101 35.3972 2.00111 35.3972C3.24439 35.3689 4.50196 35.3689 5.74524 35.3972C6.58839 35.4113 7.23146 35.7647 7.58873 36.5564C7.90312 37.249 7.80308 37.9276 7.3315 38.5213C6.91707 39.0585 6.34545 39.2422 5.68808 39.2564C5.10217 39.2422 4.50196 39.2281 3.91605 39.2281Z" fill="black"/>
<path d="M3.88725 26.9156C3.21559 26.9156 2.54394 26.958 1.87228 26.9014C0.90052 26.8307 0.214572 26.2229 0.0573756 25.3323C-0.0998207 24.4841 0.314606 23.6218 1.10059 23.2684C1.3864 23.1412 1.72937 23.0705 2.05806 23.0564C3.28705 23.0281 4.51604 23.0422 5.75932 23.0564C6.61675 23.0705 7.28841 23.438 7.63138 24.2438C7.94577 24.9648 7.81716 25.6433 7.3027 26.2512C6.88827 26.7318 6.34523 26.9156 5.73073 26.9156C5.10195 26.9297 4.48745 26.9297 3.88725 26.9156Z" fill="black"/>
</g>
<defs>
<clipPath id="clip0_491_623">
<rect width="42" height="50" fill="white"/>
</clipPath>
</defs>
</svg>
