<svg width="50" height="50" viewBox="0 0 50 50" fill="none" xmlns="http://www.w3.org/2000/svg">
<g clip-path="url(#clip0_491_528)">
<path d="M0 42.6823C0 42.6432 0 42.6172 0 42.5781C0.130208 42.474 0.286458 42.3698 0.403646 42.2396C3.88021 38.763 7.35677 35.2865 10.8333 31.8099C10.9635 31.6797 11.1068 31.5495 11.276 31.3802C12.1484 32.2656 12.9818 33.125 13.75 33.9062C15.2604 32.4349 16.7448 30.9896 18.2292 29.5443C14.1146 24.2708 13.0729 18.4896 15.0391 12.0573C15.2214 12.2266 15.3385 12.3437 15.4557 12.4479C16.9922 13.9844 18.5026 15.5339 20.0521 17.0312C20.651 17.6042 20.9505 18.1901 21.0286 19.0625C21.6276 25.8854 28.3984 30.5078 34.987 28.6589C37.4609 27.9557 39.4661 26.5495 40.9635 24.5182C38.724 22.2786 36.4974 20.0521 34.2318 17.7865C32.7344 19.2839 31.2109 20.8203 29.6484 22.3698C23.9453 16.6797 18.2292 10.9635 12.513 5.2474C12.474 5.27344 12.4349 5.29948 12.3958 5.32552C12.3958 6.57552 12.3958 7.8125 12.3958 9.04948C11.3802 9.04948 10.4167 9.04948 9.40104 9.04948C9.40104 8.25521 9.40104 7.5 9.40104 6.73177C9.38802 4.49219 9.38802 2.23958 9.375 0C12.4089 0 15.4297 0 18.4505 0C18.4505 1.0026 18.4505 2.00521 18.4505 3.04687C17.1615 3.04687 15.9245 3.04687 14.6745 3.04687C19.6745 8.11198 24.6484 13.138 29.7005 18.2422C31.3021 16.6146 32.8125 15.0781 34.349 13.5156C35.7161 14.8828 37.0573 16.224 38.3984 17.5651C39.7396 18.9062 41.0807 20.2474 42.4349 21.6016C43.6849 18.4245 43.2682 13.6328 39.9349 10.2604C38.3203 8.61979 36.3932 7.5651 34.1406 7.13542C30.8333 6.51042 27.8255 7.27865 25.1953 9.25781C23.5417 7.60417 21.9401 6.0026 20.3125 4.38802C20.4036 4.29688 20.5339 4.19271 20.651 4.08854C25.0521 0.638021 29.987 -0.598958 35.4687 0.390625C42.2917 1.6276 48.0208 7.14844 49.5182 13.9193C49.7266 14.8698 49.8437 15.8333 50 16.7969C50 17.6172 50 18.4245 50 19.2448C49.8437 20.2083 49.7266 21.1719 49.5182 22.1224C47.0312 33.2422 34.4271 39.2578 24.2188 34.1797C22.8776 33.5156 21.6406 32.6302 20.4297 31.888C18.9974 33.2812 17.513 34.7396 15.9766 36.25C16.8229 37.0964 17.6823 37.9297 18.5938 38.8411C18.4505 38.9583 18.3073 39.0625 18.1771 39.1797C14.7005 42.6562 11.224 46.1328 7.76042 49.6094C7.64323 49.7266 7.53906 49.8828 7.4349 50.013C7.40885 50.013 7.36979 50.013 7.34375 50.013C4.88281 47.5651 2.4349 45.1172 0 42.6823Z" fill="#121212"/>
<path d="M16.7051 49.9997C16.7051 49.0101 16.7051 48.0205 16.7051 47.0049C22.7207 47.0049 28.7363 47.0049 34.8691 47.0049C34.8691 48.0075 34.8691 48.9971 34.8691 49.9997C28.8145 49.9997 22.7598 49.9997 16.7051 49.9997Z" fill="#121212"/>
<path d="M49.9349 40.9639C49.9349 41.9535 49.9349 42.917 49.9349 43.9066C41.888 43.9066 33.8411 43.9066 25.7812 43.9066C25.7812 42.93 25.7812 41.9665 25.7812 40.9639C33.8021 40.9639 41.8359 40.9639 49.9349 40.9639Z" fill="#121212"/>
</g>
<defs>
<clipPath id="clip0_491_528">
<rect width="50" height="50" fill="white"/>
</clipPath>
</defs>
</svg>
