<svg width="50" height="50" viewBox="0 0 50 50" fill="none" xmlns="http://www.w3.org/2000/svg">
<g clip-path="url(#clip0_491_521)">
<path d="M26.5625 50C25.5208 50 24.4792 50 23.4375 50C23.3073 49.974 23.1901 49.9349 23.0599 49.9219C18.0859 49.5312 13.5938 47.8125 9.67448 44.7266C4.6224 40.7552 1.4974 35.599 0.377604 29.2578C0.208333 28.3724 0.117187 27.4609 0 26.5625C0 25.5208 0 24.4792 0 23.4375C0.078125 22.8385 0.130208 22.2526 0.221354 21.6536C0.9375 16.5755 2.98177 12.0964 6.43229 8.28125C10.2995 4.02344 15.0651 1.35417 20.7552 0.377604C21.6406 0.221354 22.5391 0.130208 23.4375 0C24.4792 0 25.5208 0 26.5625 0C26.6927 0.0260417 26.8099 0.0651042 26.9401 0.078125C30.7161 0.364583 34.2578 1.41927 37.5 3.35937C44.1276 7.31771 48.1901 13.0859 49.6094 20.6901C49.7786 21.6016 49.8698 22.526 49.987 23.4375C49.987 24.4792 49.987 25.5208 49.987 26.5625C49.9479 26.888 49.9089 27.2005 49.8698 27.526C49.2969 32.7865 47.3177 37.4479 43.8151 41.4193C39.9609 45.8333 35.1302 48.5677 29.349 49.6094C28.4245 49.7786 27.487 49.8698 26.5625 50ZM21.9271 32.5391C22.0573 32.5 22.1875 32.4609 22.3307 32.4219C23.9062 32.0964 25.4688 32.1615 27.0182 32.5521C28.2552 32.8646 29.362 33.4375 30.1302 34.5182C31.224 36.0417 30.9505 37.5911 29.4271 38.6589C29.2708 38.776 29.1797 38.9714 29.0625 39.1406C29.2708 39.1406 29.4922 39.1667 29.7005 39.1406C29.8047 39.1276 29.9089 39.0495 30.013 38.9974C31.5495 38.1641 32.2135 36.5885 31.6927 34.8438C31.0286 32.6562 29.4401 31.4453 27.3177 30.8594C25.3125 30.3125 23.2812 30.5208 21.276 30.9505C21.1198 30.9896 20.8854 30.9766 20.7682 30.8854C19.4792 29.8177 18.1771 28.763 16.9271 27.6562C16.0026 26.849 15.0391 26.0547 14.2187 25.1302C12.7214 23.4505 12.5781 21.5234 13.4766 19.4922C13.9583 18.3984 14.6745 17.487 15.5208 16.6536C18.125 14.1016 21.276 12.3698 24.5703 10.9115C26.9661 9.85677 29.4792 9.19271 32.1094 9.11458C33.6458 9.07552 35.1693 9.20573 36.5755 9.9349C37.8125 10.5859 38.3333 11.6276 38.1641 13.0078C37.9557 14.6224 37.1484 15.9505 36.0677 17.1094C33.5417 19.8177 30.3385 21.224 26.7057 21.6667C24.6875 21.9141 22.7604 21.7057 21.25 20.1172C21.1849 20.0391 20.9635 19.987 20.9245 20.0391C20.8464 20.1302 20.7682 20.3125 20.8073 20.4167C20.9505 20.7682 21.0938 21.1589 21.3281 21.4453C22.2656 22.5781 23.5156 23.1641 24.9609 23.3333C28.3073 23.724 31.4974 23.099 34.4531 21.5625C37.4349 20.013 39.6094 17.6693 40.599 14.388C41.6406 10.9115 40.2995 8.21615 36.9141 6.91406C33.9974 5.79427 31.0026 5.82031 28.0208 6.51042C23.2292 7.61719 18.9062 9.7526 15 12.7083C13.0078 14.2187 11.276 15.9766 10.1172 18.2161C8.69792 20.9505 8.71094 22.6823 10.8203 25.3125C11.6276 26.3151 12.6172 27.2005 13.6328 28.0078C15.1172 29.1927 16.7057 30.2474 18.2552 31.3542C18.5026 31.5365 18.724 31.7318 18.9844 31.9531C18.8151 32.0443 18.724 32.0833 18.6198 32.1484C16.6667 33.1901 14.7656 34.3229 13.112 35.8073C11.9141 36.875 11.0547 38.138 10.8203 39.7656C10.4818 42.1615 11.7969 43.8021 14.1927 43.8411C17.2135 43.8932 19.5312 42.526 21.1458 40.0391C22.6042 37.7214 22.7604 35.1823 21.9271 32.5391Z" fill="#121212"/>
<path d="M20.0134 33.3467C20.3649 34.5706 20.391 35.7555 20.0134 36.9014C19.2972 39.0498 17.917 40.5993 15.6774 41.2243C14.1279 41.654 13.3988 40.9118 13.7894 39.3623C14.0628 38.2686 14.6748 37.3441 15.4561 36.5368C16.7581 35.2087 18.3076 34.2321 20.0134 33.3467Z" fill="#121212"/>
</g>
<defs>
<clipPath id="clip0_491_521">
<rect width="50" height="50" fill="white"/>
</clipPath>
</defs>
</svg>
