<svg width="78" height="50" viewBox="0 0 78 50" fill="none" xmlns="http://www.w3.org/2000/svg">
<path d="M24.3165 50.0007C24.223 50.0007 24.0983 50.0007 24.0048 50.0007C16.211 36.0158 8.44844 22.0309 0.654676 8.04595C0.498801 7.76311 0.218225 7.5117 0 7.26028C0 7.166 0 7.0403 0 6.94602C5.29976 6.91459 10.5995 6.85174 15.8993 6.88316C16.3046 6.88316 16.8657 7.41742 17.1151 7.82597C18.5492 10.3087 19.9209 12.8228 21.3237 15.337C22.259 16.9712 23.1631 18.6368 24.1918 20.4595C26.5923 16.1855 28.8681 12.1314 31.0815 8.04595C31.5803 7.13458 32.1103 6.78888 33.1391 6.82031C38.3453 6.88316 43.5204 6.88316 48.7266 6.82031C49.8177 6.82031 50.3789 7.19743 50.8777 8.14023C55.6475 16.7826 60.4484 25.3935 65.3118 33.973C65.8106 34.853 65.8106 35.513 65.3118 36.3929C62.8177 40.7927 60.4173 45.2553 57.9856 49.6864C57.6115 49.3407 57.1439 49.0265 56.9257 48.6179C51.8753 39.5984 46.8873 30.579 41.8681 21.5909C41.6187 21.1195 41.3381 20.6795 40.964 20.051C35.3213 30.139 29.8034 40.0698 24.3165 50.0007Z" fill="#121212"/>
<path d="M77.9377 16.0597C76.6907 18.9824 74.7266 21.0566 71.3909 21.2765C68.5228 21.4651 65.9976 20.6166 63.7842 18.4796C64.4077 17.5368 65 16.6254 65.53 15.7769C66.6523 16.3425 67.6811 17.0025 68.7722 17.3482C69.6139 17.631 70.6427 17.6625 71.5156 17.5053C73.0432 17.2539 74.1031 15.9654 74.1031 14.5826C74.1031 13.0113 73.199 12.0371 71.765 11.66C71.0168 11.4714 70.2062 11.5028 69.4892 11.3143C68.9281 11.1571 68.3357 10.8743 67.9305 10.4657C67.3693 9.8372 67.5564 9.20867 68.1175 8.54871C69.5516 6.91451 70.9233 5.18604 72.482 3.33186C69.8321 3.33186 67.307 3.33186 64.7194 3.33186C64.6571 2.10622 64.5947 1.06913 64.5324 0.0634766C68.8034 0.0634766 73.0432 0.0634766 77.3142 0.0634766C77.6259 1.76052 77.0024 3.04902 75.8177 4.24324C74.6331 5.43745 73.5731 6.82023 72.295 8.32872C75.3189 8.8944 77.0959 10.5914 77.9377 13.2627C77.9377 14.1741 77.9377 15.1169 77.9377 16.0597Z" fill="#121212"/>
<path d="M77.9376 13.231C77.0647 10.5597 75.3189 8.86268 72.2949 8.297C73.6043 6.78851 74.6331 5.40574 75.8177 4.21152C77.0024 3.0173 77.6259 1.7288 77.3141 0.031758C78.2805 -0.156803 77.9376 0.566013 77.9376 0.974561C77.9376 5.06004 77.9376 9.14552 77.9376 13.231Z" fill="#F8FCFA"/>
</svg>
