<svg width="50" height="50" viewBox="0 0 50 50" fill="none" xmlns="http://www.w3.org/2000/svg">
<path d="M0 42.567C0 30.8513 0 19.1356 0 7.41994C0.0260417 7.32882 0.078125 7.2377 0.0911458 7.14658C0.572917 3.85316 2.98177 1.13252 6.19792 0.286384C6.60156 0.182244 7.01823 0.0911221 7.42187 0C19.1406 0 30.8594 0 42.5781 0C42.6693 0.0260349 42.7604 0.0781047 42.8516 0.0911221C46.1589 0.572767 48.8672 2.98099 49.7135 6.20932C49.8177 6.61286 49.9089 7.0164 50 7.43296C50 19.1487 50 30.8644 50 42.5801C49.974 42.6712 49.9219 42.7623 49.9089 42.8534C49.4271 46.1599 47.0182 48.8675 43.8021 49.7136C43.3984 49.8178 42.9948 49.9089 42.5781 50C30.8594 50 19.1406 50 7.42187 50C7.33073 49.974 7.23958 49.9219 7.14844 49.9089C3.80208 49.4272 1.06771 46.9669 0.234375 43.6605C0.15625 43.296 0.078125 42.9315 0 42.567ZM13.6198 10.8826C13.6198 20.6066 13.6198 30.3046 13.6198 40.0156C13.724 40.0286 13.7891 40.0286 13.8542 40.0286C18.4375 40.0286 23.0339 40.0417 27.6172 40.0156C29.4792 40.0026 31.3151 39.7032 33.0339 38.9482C34.8698 38.1541 36.3411 36.9695 37.1224 35.056C37.7865 33.4158 37.8646 31.7235 37.5521 30.0182C37.0312 27.1674 35.4818 25.2018 32.5651 24.4598C32.474 24.4337 32.3828 24.3947 32.2135 24.3296C32.4089 24.2255 32.526 24.1734 32.6302 24.1083C34.8177 23.0279 36.1589 21.3096 36.3672 18.8362C36.6536 15.3736 35.3516 12.7311 31.849 11.4814C30.4688 10.9867 29.0234 10.8435 27.5781 10.8435C23.0859 10.8305 18.5938 10.8435 14.1016 10.8435C13.9583 10.8565 13.7891 10.8696 13.6198 10.8826Z" fill="black"/>
<path d="M18.7236 26.7637C18.8408 26.7506 18.932 26.7376 19.0101 26.7376C22.057 26.7376 25.0908 26.7246 28.1377 26.7506C29.1924 26.7637 30.208 27.011 31.0674 27.6749C32.4997 28.7684 32.7861 30.3044 32.5908 31.9576C32.3174 34.2747 30.807 35.7327 28.4762 35.7978C25.2731 35.8889 22.07 35.8238 18.8669 35.8368C18.8408 35.8368 18.8018 35.8108 18.7367 35.7978C18.7236 32.8038 18.7236 29.8097 18.7236 26.7637Z" fill="black"/>
<path d="M18.7109 23.0019C18.7109 20.3463 18.7109 17.7298 18.7109 15.0612C18.8672 15.0482 19.0104 15.0222 19.1406 15.0222C21.7969 15.0222 24.4401 14.9961 27.0964 15.0352C27.8255 15.0482 28.5807 15.1914 29.2839 15.3997C30.2344 15.6861 30.8333 16.376 31.0938 17.3393C31.3411 18.2375 31.3932 19.1357 31.2109 20.0469C30.8594 21.7131 29.4661 22.9628 27.6693 23.0149C24.7266 23.093 21.7839 23.0409 18.8411 23.0539C18.8151 23.0539 18.7891 23.0279 18.7109 23.0019Z" fill="black"/>
</svg>
