<svg width="60" height="50" viewBox="0 0 60 50" fill="none" xmlns="http://www.w3.org/2000/svg">
<g clip-path="url(#clip0_491_548)">
<path d="M60.0003 25.2037C59.9197 26.6048 59.9842 28.0222 59.7103 29.3907C58.8241 33.9524 54.5706 36.9176 50.0432 36.217C49.5921 36.1518 49.3665 36.2822 49.1088 36.6406C45.4836 41.8866 40.5534 45.145 34.3504 46.4158C33.9315 46.4972 33.706 46.6765 33.5287 47.0675C32.5137 49.2669 30.1131 50.4236 27.8091 49.8371C25.5212 49.2669 23.8939 47.1163 23.9745 44.754C24.0551 42.3102 25.8273 40.2737 28.1958 39.8664C30.2258 39.5243 32.2881 40.4855 33.3193 42.3265C33.561 42.7501 33.7865 42.8153 34.2215 42.7175C42.3257 40.8602 48.3193 34.262 49.4149 25.9368C50.7844 15.6077 43.663 5.71848 33.5126 3.92637C22.9756 2.06909 13.1152 8.73249 10.8273 19.3223C9.82842 23.9655 10.489 28.4295 12.6802 32.6491C13.518 34.262 13.0991 35.3047 11.3913 35.8912C5.99383 37.7159 0.29029 33.7732 0.0647264 27.9896C-0.0158322 25.8228 -0.0480556 23.6233 0.161397 21.4728C0.548078 17.5627 4.02821 14.3206 7.91113 14.0925C8.52337 14.06 8.78116 13.8319 9.07117 13.2942C13.6469 4.41513 20.9133 -0.293247 30.8059 0.0162997C40.0862 0.309555 46.8048 5.09939 50.9938 13.4735C51.2033 13.897 51.4288 14.06 51.8961 14.0763C56.3751 14.3369 59.8875 18.0841 59.9519 22.6295C59.9681 23.4767 59.9519 24.3402 59.9519 25.1874C59.9681 25.2037 59.9842 25.2037 60.0003 25.2037Z" fill="#121212"/>
<path d="M29.7905 8.01575C37.8142 7.98317 44.4522 14.1252 45.1128 22.0594C45.8056 30.238 40.0537 37.5368 32.0623 38.6283C30.2094 38.889 28.3727 38.7913 26.536 38.384C26.2621 38.3188 25.8915 38.384 25.6498 38.5306C23.7487 39.6059 21.8958 40.73 19.9946 41.8053C18.7862 42.4895 17.4329 41.8541 17.2395 40.5182C17.1912 40.1924 17.2556 39.8339 17.3523 39.5081C17.7873 37.8137 18.2223 36.1194 18.7057 34.4413C18.8185 34.0177 18.7379 33.7407 18.464 33.4149C14.7744 28.8206 13.7111 23.656 15.7572 18.0842C17.8034 12.5123 21.928 9.25394 27.7282 8.21126C27.9699 8.16238 28.2116 8.1298 28.4533 8.11351C28.9688 8.06463 29.4683 8.04834 29.7905 8.01575ZM29.9839 25.2201C30.9828 25.2201 31.7884 24.4217 31.8045 23.4116C31.8206 22.4015 30.9667 21.5381 29.9678 21.5544C28.985 21.5707 28.1794 22.4015 28.1794 23.3954C28.1794 24.4218 28.985 25.2201 29.9839 25.2201ZM23.942 25.2201C24.9409 25.2201 25.7465 24.438 25.7626 23.4279C25.7787 22.4504 24.9731 21.5869 23.9903 21.5707C22.9914 21.5381 22.1375 22.4015 22.1375 23.4116C22.1375 24.4055 22.9431 25.2201 23.942 25.2201ZM36.0097 25.2201C37.0086 25.2363 37.8142 24.4543 37.8464 23.4442C37.8625 22.4341 37.0247 21.5544 36.0258 21.5707C35.043 21.5707 34.2213 22.4015 34.2213 23.3954C34.2213 24.3892 35.0107 25.2038 36.0097 25.2201Z" fill="#121212"/>
</g>
<defs>
<clipPath id="clip0_491_548">
<rect width="60" height="50" fill="white"/>
</clipPath>
</defs>
</svg>
