<svg width="99" height="29" viewBox="0 0 99 29" fill="none" xmlns="http://www.w3.org/2000/svg">
<path d="M14.705 28.57C11.8677 28.57 9.35967 28.0127 7.181 26.898C5.00233 25.758 3.31767 24.1493 2.127 22.072C0.936333 19.9947 0.341 17.55 0.341 14.738C0.341 11.926 0.936333 9.48133 2.127 7.404C3.31767 5.30133 5.00233 3.69267 7.181 2.578C9.35967 1.438 11.8677 0.867998 14.705 0.867998C16.6303 0.867998 18.3277 1.07067 19.797 1.476C21.2917 1.856 22.6597 2.464 23.901 3.3V8.81C22.7863 7.898 21.507 7.23933 20.063 6.834C18.6443 6.40333 17.023 6.188 15.199 6.188C13.5017 6.188 11.969 6.54267 10.601 7.252C9.25833 7.936 8.19433 8.924 7.409 10.216C6.62367 11.508 6.231 13.0153 6.231 14.738C6.231 16.486 6.58567 18.0187 7.295 19.336C8.02967 20.628 9.05567 21.6287 10.373 22.338C11.6903 23.0473 13.2103 23.402 14.933 23.402C16.5037 23.402 17.8717 23.1233 19.037 22.566V17.436H14.743V13.18H24.623V25.986C22.115 27.7087 18.809 28.57 14.705 28.57ZM35.8369 28.57C34.2155 28.57 32.6069 28.418 31.0109 28.114C29.4149 27.81 28.1102 27.4047 27.0969 26.898V21.806C28.4395 22.4647 29.8329 22.9587 31.2769 23.288C32.7209 23.6173 34.1015 23.782 35.4189 23.782C36.8882 23.782 38.0029 23.5287 38.7629 23.022C39.5229 22.5153 39.9029 21.806 39.9029 20.894C39.9029 20.2353 39.7129 19.678 39.3329 19.222C38.9529 18.766 38.3955 18.3607 37.6609 18.006C36.9515 17.626 35.8495 17.132 34.3549 16.524C31.8722 15.5107 30.0735 14.3833 28.9589 13.142C27.8442 11.8753 27.2869 10.3173 27.2869 8.468C27.2869 6.97333 27.6922 5.656 28.5029 4.516C29.3135 3.35067 30.4535 2.45133 31.9229 1.818C33.3922 1.18467 35.0895 0.867998 37.0149 0.867998C38.5855 0.867998 39.9789 0.994665 41.1949 1.248C42.4109 1.50133 43.6015 1.894 44.7669 2.426V7.366C42.5375 6.25133 40.3082 5.694 38.0789 5.694C36.6602 5.694 35.5455 5.94733 34.7349 6.454C33.9242 6.93533 33.5189 7.632 33.5189 8.544C33.5189 9.20267 33.7089 9.74733 34.0889 10.178C34.4689 10.6087 35.0009 10.9887 35.6849 11.318C36.3689 11.6473 37.4835 12.1287 39.0289 12.762C40.8275 13.522 42.2335 14.2567 43.2469 14.966C44.2602 15.65 45.0075 16.4733 45.4889 17.436C45.9702 18.3733 46.2109 19.5387 46.2109 20.932C46.2109 23.3387 45.3369 25.2133 43.5889 26.556C41.8662 27.8987 39.2822 28.57 35.8369 28.57ZM57.6275 1.438H63.2895L73.8915 28H68.0015L65.7215 22.224H55.1955L52.9155 28H46.9875L57.6275 1.438ZM64.2015 17.626L60.4395 7.518L56.6775 17.626H64.2015ZM77.101 1.438H88.273C91.2877 1.438 93.6943 2.236 95.493 3.832C97.2917 5.40267 98.191 7.594 98.191 10.406C98.191 13.294 97.2917 15.5107 95.493 17.056C93.7197 18.6013 91.313 19.374 88.273 19.374H82.877V28H77.101V1.438ZM87.437 14.548C90.705 14.548 92.339 13.1673 92.339 10.406C92.339 8.86067 91.8957 7.784 91.009 7.176C90.1477 6.568 88.957 6.264 87.437 6.264H82.877V14.548H87.437Z" fill="#121212"/>
</svg>
